<?xml version="1.0" encoding="UTF-8" standalone="no"?>
<!DOCTYPE svg PUBLIC "-//W3C//DTD SVG 1.1//EN"
 "http://www.w3.org/Graphics/SVG/1.1/DTD/svg11.dtd">
<!-- Generated by graphviz version 2.44.1 (20200629.0846)
 -->
<!-- Title: dependencies Pages: 1 -->
<svg width="1390pt" height="211pt"
 viewBox="0.00 0.00 1390.00 211.00" xmlns="http://www.w3.org/2000/svg" xmlns:xlink="http://www.w3.org/1999/xlink">
<g id="graph0" class="graph" transform="scale(1 1) rotate(0) translate(4 207)">
<title>dependencies</title>
<polygon fill="white" stroke="transparent" points="-4,4 -4,-207 1386,-207 1386,4 -4,4"/>
<text text-anchor="start" x="670.01" y="-42.4" font-family="sans-serif" font-weight="bold" font-size="14.00">Legend</text>
<polygon fill="#ffffb3" stroke="transparent" points="457,-10 457,-30 477,-30 477,-10 457,-10"/>
<text text-anchor="start" x="480.63" y="-15.4" font-family="sans-serif" font-size="14.00"> &#160;Declarations</text>
<polygon fill="#8dd3c7" stroke="transparent" points="570,-10 570,-30 590,-30 590,-10 570,-10"/>
<text text-anchor="start" x="593.73" y="-15.4" font-family="sans-serif" font-size="14.00"> &#160;Module</text>
<polygon fill="#80b1d3" stroke="transparent" points="656,-10 656,-30 676,-30 676,-10 656,-10"/>
<text text-anchor="start" x="679.78" y="-15.4" font-family="sans-serif" font-size="14.00"> &#160;Bootstrap</text>
<polygon fill="#fdb462" stroke="transparent" points="753,-10 753,-30 773,-30 773,-10 753,-10"/>
<text text-anchor="start" x="776.67" y="-15.4" font-family="sans-serif" font-size="14.00"> &#160;Providers</text>
<polygon fill="#fb8072" stroke="transparent" points="849,-10 849,-30 869,-30 869,-10 849,-10"/>
<text text-anchor="start" x="872.73" y="-15.4" font-family="sans-serif" font-size="14.00"> &#160;Exports</text>
<g id="clust1" class="cluster">
<title>cluster_UserModule</title>
<polygon fill="none" stroke="black" stroke-dasharray="1,5" points="8,-70 8,-195 1374,-195 1374,-70 8,-70"/>
</g>
<g id="clust2" class="cluster">
<title>cluster_UserModule_declarations</title>
<polygon fill="none" stroke="black" points="276,-78 276,-130 1366,-130 1366,-78 276,-78"/>
</g>
<g id="clust9" class="cluster">
<title>cluster_UserModule_imports</title>
<polygon fill="none" stroke="black" points="16,-78 16,-130 268,-130 268,-78 16,-78"/>
</g>
<!-- UserMessageComponent -->
<g id="node1" class="node">
<title>UserMessageComponent</title>
<polygon fill="#ffffb3" stroke="black" points="1358.24,-122 1201.76,-122 1201.76,-86 1358.24,-86 1358.24,-122"/>
<text text-anchor="middle" x="1280" y="-99.8" font-family="Times,serif" font-size="14.00">UserMessageComponent</text>
</g>
<!-- UserModule -->
<g id="node7" class="node">
<title>UserModule</title>
<polygon fill="#8dd3c7" stroke="black" points="670.98,-187 667.98,-191 646.98,-191 643.98,-187 585.02,-187 585.02,-151 670.98,-151 670.98,-187"/>
<text text-anchor="middle" x="628" y="-164.8" font-family="Times,serif" font-size="14.00">UserModule</text>
</g>
<!-- UserMessageComponent&#45;&gt;UserModule -->
<g id="edge1" class="edge">
<title>UserMessageComponent&#45;&gt;UserModule</title>
<path fill="none" stroke="black" d="M1280,-122.29C1280,-144.21 1280,-178 1280,-178 1280,-178 681.03,-178 681.03,-178"/>
<polygon fill="black" stroke="black" points="681.03,-174.5 671.03,-178 681.03,-181.5 681.03,-174.5"/>
</g>
<!-- UserMessagesComponent -->
<g id="node2" class="node">
<title>UserMessagesComponent</title>
<polygon fill="#ffffb3" stroke="black" points="1184.18,-122 1021.82,-122 1021.82,-86 1184.18,-86 1184.18,-122"/>
<text text-anchor="middle" x="1103" y="-99.8" font-family="Times,serif" font-size="14.00">UserMessagesComponent</text>
</g>
<!-- UserMessagesComponent&#45;&gt;UserModule -->
<g id="edge2" class="edge">
<title>UserMessagesComponent&#45;&gt;UserModule</title>
<path fill="none" stroke="black" d="M1103,-122.11C1103,-141.34 1103,-169 1103,-169 1103,-169 680.99,-169 680.99,-169"/>
<polygon fill="black" stroke="black" points="680.99,-165.5 670.99,-169 680.99,-172.5 680.99,-165.5"/>
</g>
<!-- UserNotificationFormComponent -->
<g id="node3" class="node">
<title>UserNotificationFormComponent</title>
<polygon fill="#ffffb3" stroke="black" points="1003.74,-122 798.26,-122 798.26,-86 1003.74,-86 1003.74,-122"/>
<text text-anchor="middle" x="901" y="-99.8" font-family="Times,serif" font-size="14.00">UserNotificationFormComponent</text>
</g>
<!-- UserNotificationFormComponent&#45;&gt;UserModule -->
<g id="edge3" class="edge">
<title>UserNotificationFormComponent&#45;&gt;UserModule</title>
<path fill="none" stroke="black" d="M901,-122.03C901,-138.4 901,-160 901,-160 901,-160 681.26,-160 681.26,-160"/>
<polygon fill="black" stroke="black" points="681.26,-156.5 671.26,-160 681.26,-163.5 681.26,-156.5"/>
</g>
<!-- UserProfileComponent -->
<g id="node4" class="node">
<title>UserProfileComponent</title>
<polygon fill="#ffffb3" stroke="black" points="779.86,-122 634.14,-122 634.14,-86 779.86,-86 779.86,-122"/>
<text text-anchor="middle" x="707" y="-99.8" font-family="Times,serif" font-size="14.00">UserProfileComponent</text>
</g>
<!-- UserProfileComponent&#45;&gt;UserModule -->
<g id="edge4" class="edge">
<title>UserProfileComponent&#45;&gt;UserModule</title>
<path fill="none" stroke="black" d="M652.53,-122.11C652.53,-122.11 652.53,-140.99 652.53,-140.99"/>
<polygon fill="black" stroke="black" points="649.03,-140.99 652.53,-150.99 656.03,-140.99 649.03,-140.99"/>
</g>
<!-- UserTripComponent -->
<g id="node5" class="node">
<title>UserTripComponent</title>
<polygon fill="#ffffb3" stroke="black" points="615.86,-122 484.14,-122 484.14,-86 615.86,-86 615.86,-122"/>
<text text-anchor="middle" x="550" y="-99.8" font-family="Times,serif" font-size="14.00">UserTripComponent</text>
</g>
<!-- UserTripComponent&#45;&gt;UserModule -->
<g id="edge5" class="edge">
<title>UserTripComponent&#45;&gt;UserModule</title>
<path fill="none" stroke="black" d="M600.47,-122.11C600.47,-122.11 600.47,-140.99 600.47,-140.99"/>
<polygon fill="black" stroke="black" points="596.97,-140.99 600.47,-150.99 603.97,-140.99 596.97,-140.99"/>
</g>
<!-- UserUploadPhotoComponent -->
<g id="node6" class="node">
<title>UserUploadPhotoComponent</title>
<polygon fill="#ffffb3" stroke="black" points="465.64,-122 284.36,-122 284.36,-86 465.64,-86 465.64,-122"/>
<text text-anchor="middle" x="375" y="-99.8" font-family="Times,serif" font-size="14.00">UserUploadPhotoComponent</text>
</g>
<!-- UserUploadPhotoComponent&#45;&gt;UserModule -->
<g id="edge6" class="edge">
<title>UserUploadPhotoComponent&#45;&gt;UserModule</title>
<path fill="none" stroke="black" d="M375,-122.03C375,-138.4 375,-160 375,-160 375,-160 574.8,-160 574.8,-160"/>
<polygon fill="black" stroke="black" points="574.8,-163.5 584.8,-160 574.8,-156.5 574.8,-163.5"/>
</g>
<!-- CoreModule -->
<g id="node8" class="node">
<title>CoreModule</title>
<polygon fill="#8dd3c7" stroke="black" points="260.26,-122 257.26,-126 236.26,-126 233.26,-122 173.74,-122 173.74,-86 260.26,-86 260.26,-122"/>
<text text-anchor="middle" x="217" y="-99.8" font-family="Times,serif" font-size="14.00">CoreModule</text>
</g>
<!-- CoreModule&#45;&gt;UserModule -->
<g id="edge7" class="edge">
<title>CoreModule&#45;&gt;UserModule</title>
<path fill="none" stroke="black" d="M217,-122.11C217,-141.34 217,-169 217,-169 217,-169 574.79,-169 574.79,-169"/>
<polygon fill="black" stroke="black" points="574.79,-172.5 584.79,-169 574.79,-165.5 574.79,-172.5"/>
</g>
<!-- UserRoutingModule -->
<g id="node9" class="node">
<title>UserRoutingModule</title>
<polygon fill="#8dd3c7" stroke="black" points="155.59,-122 152.59,-126 131.59,-126 128.59,-122 24.41,-122 24.41,-86 155.59,-86 155.59,-122"/>
<text text-anchor="middle" x="90" y="-99.8" font-family="Times,serif" font-size="14.00">UserRoutingModule</text>
</g>
<!-- UserRoutingModule&#45;&gt;UserModule -->
<g id="edge8" class="edge">
<title>UserRoutingModule&#45;&gt;UserModule</title>
<path fill="none" stroke="black" d="M90,-122.29C90,-144.21 90,-178 90,-178 90,-178 574.88,-178 574.88,-178"/>
<polygon fill="black" stroke="black" points="574.88,-181.5 584.88,-178 574.88,-174.5 574.88,-181.5"/>
</g>
</g>
</svg>
