<?xml version="1.0" encoding="UTF-8" standalone="no"?>
<!DOCTYPE svg PUBLIC "-//W3C//DTD SVG 1.1//EN"
 "http://www.w3.org/Graphics/SVG/1.1/DTD/svg11.dtd">
<!-- Generated by graphviz version 2.44.1 (20200629.0846)
 -->
<!-- Title: dependencies Pages: 1 -->
<svg width="3428pt" height="366pt"
 viewBox="0.00 0.00 3428.00 366.00" xmlns="http://www.w3.org/2000/svg" xmlns:xlink="http://www.w3.org/1999/xlink">
<g id="graph0" class="graph" transform="scale(1 1) rotate(0) translate(4 362)">
<title>dependencies</title>
<polygon fill="white" stroke="transparent" points="-4,4 -4,-362 3424,-362 3424,4 -4,4"/>
<text text-anchor="start" x="1689.01" y="-42.4" font-family="sans-serif" font-weight="bold" font-size="14.00">Legend</text>
<polygon fill="#ffffb3" stroke="transparent" points="1476,-10 1476,-30 1496,-30 1496,-10 1476,-10"/>
<text text-anchor="start" x="1499.63" y="-15.4" font-family="sans-serif" font-size="14.00"> &#160;Declarations</text>
<polygon fill="#8dd3c7" stroke="transparent" points="1589,-10 1589,-30 1609,-30 1609,-10 1589,-10"/>
<text text-anchor="start" x="1612.73" y="-15.4" font-family="sans-serif" font-size="14.00"> &#160;Module</text>
<polygon fill="#80b1d3" stroke="transparent" points="1675,-10 1675,-30 1695,-30 1695,-10 1675,-10"/>
<text text-anchor="start" x="1698.78" y="-15.4" font-family="sans-serif" font-size="14.00"> &#160;Bootstrap</text>
<polygon fill="#fdb462" stroke="transparent" points="1772,-10 1772,-30 1792,-30 1792,-10 1772,-10"/>
<text text-anchor="start" x="1795.67" y="-15.4" font-family="sans-serif" font-size="14.00"> &#160;Providers</text>
<polygon fill="#fb8072" stroke="transparent" points="1868,-10 1868,-30 1888,-30 1888,-10 1868,-10"/>
<text text-anchor="start" x="1891.73" y="-15.4" font-family="sans-serif" font-size="14.00"> &#160;Exports</text>
<g id="clust1" class="cluster">
<title>cluster_AppModule</title>
<polygon fill="none" stroke="black" stroke-dasharray="1,5" points="1278,-146 1278,-350 2007,-350 2007,-146 1278,-146"/>
</g>
<g id="clust2" class="cluster">
<title>cluster_AppModule_declarations</title>
<polygon fill="none" stroke="black" points="1286,-154 1286,-206 1408,-206 1408,-154 1286,-154"/>
</g>
<g id="clust4" class="cluster">
<title>cluster_AppModule_imports</title>
<polygon fill="none" stroke="black" points="1416,-154 1416,-206 1999,-206 1999,-154 1416,-154"/>
</g>
<g id="clust6" class="cluster">
<title>cluster_AppModule_bootstrap</title>
<polygon fill="none" stroke="black" points="1576,-290 1576,-342 1700,-342 1700,-290 1576,-290"/>
</g>
<g id="clust14" class="cluster">
<title>cluster_AuthModule</title>
<polygon fill="none" stroke="black" stroke-dasharray="1,5" points="1504,-70 1504,-138 1796,-138 1796,-70 1504,-70"/>
</g>
<g id="clust15" class="cluster">
<title>cluster_AuthModule_declarations</title>
<polygon fill="none" stroke="black" points="1512,-78 1512,-130 1788,-130 1788,-78 1512,-78"/>
</g>
<g id="clust22" class="cluster">
<title>cluster_CoreModule</title>
<polygon fill="none" stroke="black" stroke-dasharray="1,5" points="2015,-214 2015,-282 3000,-282 3000,-214 2015,-214"/>
</g>
<g id="clust23" class="cluster">
<title>cluster_CoreModule_declarations</title>
<polygon fill="none" stroke="black" points="2517,-222 2517,-274 2992,-274 2992,-222 2517,-222"/>
</g>
<g id="clust28" class="cluster">
<title>cluster_CoreModule_exports</title>
<polygon fill="none" stroke="black" points="2023,-222 2023,-274 2509,-274 2509,-222 2023,-222"/>
</g>
<g id="clust31" class="cluster">
<title>cluster_HomeModule</title>
<polygon fill="none" stroke="black" stroke-dasharray="1,5" points="1804,-70 1804,-138 2136,-138 2136,-70 1804,-70"/>
</g>
<g id="clust32" class="cluster">
<title>cluster_HomeModule_declarations</title>
<polygon fill="none" stroke="black" points="1812,-78 1812,-130 2128,-130 2128,-78 1812,-78"/>
</g>
<g id="clust39" class="cluster">
<title>cluster_SharedModule</title>
<polygon fill="none" stroke="black" stroke-dasharray="1,5" points="1072,-70 1072,-138 1496,-138 1496,-70 1072,-70"/>
</g>
<g id="clust40" class="cluster">
<title>cluster_SharedModule_declarations</title>
<polygon fill="none" stroke="black" points="1212,-78 1212,-130 1488,-130 1488,-78 1212,-78"/>
</g>
<g id="clust44" class="cluster">
<title>cluster_SharedModule_exports</title>
<polygon fill="none" stroke="black" points="1080,-78 1080,-130 1204,-130 1204,-78 1080,-78"/>
</g>
<g id="clust47" class="cluster">
<title>cluster_TripModule</title>
<polygon fill="none" stroke="black" stroke-dasharray="1,5" points="2144,-70 2144,-206 3412,-206 3412,-70 2144,-70"/>
</g>
<g id="clust48" class="cluster">
<title>cluster_TripModule_declarations</title>
<polygon fill="none" stroke="black" points="2304,-78 2304,-130 3404,-130 3404,-78 2304,-78"/>
</g>
<g id="clust56" class="cluster">
<title>cluster_TripModule_imports</title>
<polygon fill="none" stroke="black" points="2152,-78 2152,-130 2296,-130 2296,-78 2152,-78"/>
</g>
<g id="clust66" class="cluster">
<title>cluster_UserModule</title>
<polygon fill="none" stroke="black" stroke-dasharray="1,5" points="8,-146 8,-274 1270,-274 1270,-146 8,-146"/>
</g>
<g id="clust67" class="cluster">
<title>cluster_UserModule_declarations</title>
<polygon fill="none" stroke="black" points="172,-154 172,-206 1262,-206 1262,-154 172,-154"/>
</g>
<g id="clust74" class="cluster">
<title>cluster_UserModule_imports</title>
<polygon fill="none" stroke="black" points="16,-154 16,-206 164,-206 164,-154 16,-154"/>
</g>
<!-- AppComponent -->
<g id="node1" class="node">
<title>AppComponent</title>
<polygon fill="#ffffb3" stroke="black" points="1399.94,-198 1294.06,-198 1294.06,-162 1399.94,-162 1399.94,-198"/>
<text text-anchor="middle" x="1347" y="-175.8" font-family="Times,serif" font-size="14.00">AppComponent</text>
</g>
<!-- AppModule -->
<g id="node2" class="node">
<title>AppModule</title>
<polygon fill="#8dd3c7" stroke="black" points="1679.66,-266 1676.66,-270 1655.66,-270 1652.66,-266 1596.34,-266 1596.34,-230 1679.66,-230 1679.66,-266"/>
<text text-anchor="middle" x="1638" y="-243.8" font-family="Times,serif" font-size="14.00">AppModule</text>
</g>
<!-- AppComponent&#45;&gt;AppModule -->
<g id="edge1" class="edge">
<title>AppComponent&#45;&gt;AppModule</title>
<path fill="none" stroke="black" d="M1347,-198.32C1347,-221.66 1347,-259 1347,-259 1347,-259 1586.31,-259 1586.31,-259"/>
<polygon fill="black" stroke="black" points="1586.31,-262.5 1596.31,-259 1586.31,-255.5 1586.31,-262.5"/>
</g>
<!-- AppComponent  -->
<g id="node8" class="node">
<title>AppComponent </title>
<polygon fill="#80b1d3" stroke="black" points="1692.44,-334 1583.56,-334 1583.56,-298 1692.44,-298 1692.44,-334"/>
<text text-anchor="middle" x="1638" y="-311.8" font-family="Times,serif" font-size="14.00">AppComponent </text>
</g>
<!-- AppModule&#45;&gt;AppComponent  -->
<g id="edge7" class="edge">
<title>AppModule&#45;&gt;AppComponent </title>
<path fill="none" stroke="black" stroke-dasharray="1,5" d="M1638,-266.22C1638,-266.22 1638,-287.73 1638,-287.73"/>
<polygon fill="black" stroke="black" points="1634.5,-287.73 1638,-297.73 1641.5,-287.73 1634.5,-287.73"/>
</g>
<!-- AppRoutingModule -->
<g id="node3" class="node">
<title>AppRoutingModule</title>
<polygon fill="#8dd3c7" stroke="black" points="1886.27,-198 1883.27,-202 1862.27,-202 1859.27,-198 1757.73,-198 1757.73,-162 1886.27,-162 1886.27,-198"/>
<text text-anchor="middle" x="1822" y="-175.8" font-family="Times,serif" font-size="14.00">AppRoutingModule</text>
</g>
<!-- AppRoutingModule&#45;&gt;AppModule -->
<g id="edge2" class="edge">
<title>AppRoutingModule&#45;&gt;AppModule</title>
<path fill="none" stroke="black" d="M1822,-198.02C1822,-215.37 1822,-239 1822,-239 1822,-239 1689.75,-239 1689.75,-239"/>
<polygon fill="black" stroke="black" points="1689.75,-235.5 1679.75,-239 1689.75,-242.5 1689.75,-235.5"/>
</g>
<!-- AuthModule -->
<g id="node4" class="node">
<title>AuthModule</title>
<polygon fill="#8dd3c7" stroke="black" points="1627.55,-198 1624.55,-202 1603.55,-202 1600.55,-198 1540.45,-198 1540.45,-162 1627.55,-162 1627.55,-198"/>
<text text-anchor="middle" x="1584" y="-175.8" font-family="Times,serif" font-size="14.00">AuthModule</text>
</g>
<!-- AuthModule&#45;&gt;AppModule -->
<g id="edge3" class="edge">
<title>AuthModule&#45;&gt;AppModule</title>
<path fill="none" stroke="black" d="M1611.97,-198.22C1611.97,-198.22 1611.97,-219.73 1611.97,-219.73"/>
<polygon fill="black" stroke="black" points="1608.47,-219.73 1611.97,-229.73 1615.47,-219.73 1608.47,-219.73"/>
</g>
<!-- CoreModule -->
<g id="node5" class="node">
<title>CoreModule</title>
<polygon fill="#8dd3c7" stroke="black" points="1991.26,-198 1988.26,-202 1967.26,-202 1964.26,-198 1904.74,-198 1904.74,-162 1991.26,-162 1991.26,-198"/>
<text text-anchor="middle" x="1948" y="-175.8" font-family="Times,serif" font-size="14.00">CoreModule</text>
</g>
<!-- CoreModule&#45;&gt;AppModule -->
<g id="edge4" class="edge">
<title>CoreModule&#45;&gt;AppModule</title>
<path fill="none" stroke="black" d="M1956.68,-198.22C1956.68,-218.37 1956.68,-248 1956.68,-248 1956.68,-248 1689.66,-248 1689.66,-248"/>
<polygon fill="black" stroke="black" points="1689.66,-244.5 1679.66,-248 1689.66,-251.5 1689.66,-244.5"/>
</g>
<!-- HideElementDirective  -->
<g id="node14" class="node">
<title>HideElementDirective </title>
<polygon fill="#fb8072" stroke="black" points="2500.95,-266 2355.05,-266 2355.05,-230 2500.95,-230 2500.95,-266"/>
<text text-anchor="middle" x="2428" y="-243.8" font-family="Times,serif" font-size="14.00">HideElementDirective </text>
</g>
<!-- CoreModule&#45;&gt;HideElementDirective  -->
<g id="edge13" class="edge">
<title>CoreModule&#45;&gt;HideElementDirective </title>
<path fill="none" stroke="black" stroke-dasharray="5,2" d="M1991.34,-189C2101.46,-189 2383.39,-189 2383.39,-189 2383.39,-189 2383.39,-219.98 2383.39,-219.98"/>
<polygon fill="black" stroke="black" points="2379.89,-219.98 2383.39,-229.98 2386.89,-219.98 2379.89,-219.98"/>
</g>
<!-- ReadOnlyDirective  -->
<g id="node15" class="node">
<title>ReadOnlyDirective </title>
<polygon fill="#fb8072" stroke="black" points="2337.35,-266 2208.65,-266 2208.65,-230 2337.35,-230 2337.35,-266"/>
<text text-anchor="middle" x="2273" y="-243.8" font-family="Times,serif" font-size="14.00">ReadOnlyDirective </text>
</g>
<!-- CoreModule&#45;&gt;ReadOnlyDirective  -->
<g id="edge14" class="edge">
<title>CoreModule&#45;&gt;ReadOnlyDirective </title>
<path fill="none" stroke="black" stroke-dasharray="5,2" d="M1991.33,-194C2071.6,-194 2235.35,-194 2235.35,-194 2235.35,-194 2235.35,-219.72 2235.35,-219.72"/>
<polygon fill="black" stroke="black" points="2231.85,-219.72 2235.35,-229.72 2238.85,-219.72 2231.85,-219.72"/>
</g>
<!-- TransformUsernamePipe  -->
<g id="node16" class="node">
<title>TransformUsernamePipe </title>
<polygon fill="#fb8072" stroke="black" points="2191.22,-266 2030.78,-266 2030.78,-230 2191.22,-230 2191.22,-266"/>
<text text-anchor="middle" x="2111" y="-243.8" font-family="Times,serif" font-size="14.00">TransformUsernamePipe </text>
</g>
<!-- CoreModule&#45;&gt;TransformUsernamePipe  -->
<g id="edge15" class="edge">
<title>CoreModule&#45;&gt;TransformUsernamePipe </title>
<path fill="none" stroke="black" stroke-dasharray="5,2" d="M1974.03,-198.25C1974.03,-221.02 1974.03,-257 1974.03,-257 1974.03,-257 2020.53,-257 2020.53,-257"/>
<polygon fill="black" stroke="black" points="2020.53,-260.5 2030.53,-257 2020.53,-253.5 2020.53,-260.5"/>
</g>
<!-- UserModule -->
<g id="node37" class="node">
<title>UserModule</title>
<polygon fill="#8dd3c7" stroke="black" points="754.98,-266 751.98,-270 730.98,-270 727.98,-266 669.02,-266 669.02,-230 754.98,-230 754.98,-266"/>
<text text-anchor="middle" x="712" y="-243.8" font-family="Times,serif" font-size="14.00">UserModule</text>
</g>
<!-- CoreModule&#45;&gt;UserModule -->
<g id="edge35" class="edge">
<title>CoreModule&#45;&gt;UserModule</title>
<path fill="none" stroke="black" d="M1921.97,-198.2C1921.97,-204.03 1921.97,-209 1921.97,-209 1921.97,-209 748.01,-209 748.01,-209 748.01,-209 748.01,-219.87 748.01,-219.87"/>
<polygon fill="black" stroke="black" points="744.52,-219.87 748.01,-229.87 751.52,-219.87 744.52,-219.87"/>
</g>
<!-- HomeModule -->
<g id="node6" class="node">
<title>HomeModule</title>
<polygon fill="#8dd3c7" stroke="black" points="1739.76,-198 1736.76,-202 1715.76,-202 1712.76,-198 1646.24,-198 1646.24,-162 1739.76,-162 1739.76,-198"/>
<text text-anchor="middle" x="1693" y="-175.8" font-family="Times,serif" font-size="14.00">HomeModule</text>
</g>
<!-- HomeModule&#45;&gt;AppModule -->
<g id="edge5" class="edge">
<title>HomeModule&#45;&gt;AppModule</title>
<path fill="none" stroke="black" d="M1662.97,-198.22C1662.97,-198.22 1662.97,-219.73 1662.97,-219.73"/>
<polygon fill="black" stroke="black" points="1659.47,-219.73 1662.97,-229.73 1666.47,-219.73 1659.47,-219.73"/>
</g>
<!-- SharedModule -->
<g id="node7" class="node">
<title>SharedModule</title>
<polygon fill="#8dd3c7" stroke="black" points="1522.42,-198 1519.42,-202 1498.42,-202 1495.42,-198 1423.58,-198 1423.58,-162 1522.42,-162 1522.42,-198"/>
<text text-anchor="middle" x="1473" y="-175.8" font-family="Times,serif" font-size="14.00">SharedModule</text>
</g>
<!-- SharedModule&#45;&gt;AppModule -->
<g id="edge6" class="edge">
<title>SharedModule&#45;&gt;AppModule</title>
<path fill="none" stroke="black" d="M1473,-198.17C1473,-219.5 1473,-252 1473,-252 1473,-252 1585.94,-252 1585.94,-252"/>
<polygon fill="black" stroke="black" points="1585.94,-255.5 1595.94,-252 1585.94,-248.5 1585.94,-255.5"/>
</g>
<!-- NavComponent  -->
<g id="node21" class="node">
<title>NavComponent </title>
<polygon fill="#fb8072" stroke="black" points="1196.15,-122 1087.85,-122 1087.85,-86 1196.15,-86 1196.15,-122"/>
<text text-anchor="middle" x="1142" y="-99.8" font-family="Times,serif" font-size="14.00">NavComponent </text>
</g>
<!-- SharedModule&#45;&gt;NavComponent  -->
<g id="edge20" class="edge">
<title>SharedModule&#45;&gt;NavComponent </title>
<path fill="none" stroke="black" stroke-dasharray="5,2" d="M1437.92,-161.85C1437.92,-149.73 1437.92,-136 1437.92,-136 1437.92,-136 1142,-136 1142,-136 1142,-136 1142,-132.24 1142,-132.24"/>
<polygon fill="black" stroke="black" points="1145.5,-132.24 1142,-122.24 1138.5,-132.24 1145.5,-132.24"/>
</g>
<!-- LoginComponent -->
<g id="node9" class="node">
<title>LoginComponent</title>
<polygon fill="#ffffb3" stroke="black" points="1780.28,-122 1665.72,-122 1665.72,-86 1780.28,-86 1780.28,-122"/>
<text text-anchor="middle" x="1723" y="-99.8" font-family="Times,serif" font-size="14.00">LoginComponent</text>
</g>
<!-- LoginComponent&#45;&gt;AuthModule -->
<g id="edge8" class="edge">
<title>LoginComponent&#45;&gt;AuthModule</title>
<path fill="none" stroke="black" d="M1684.18,-122.11C1684.18,-131.9 1684.18,-142 1684.18,-142 1684.18,-142 1598.59,-142 1598.59,-142 1598.59,-142 1598.59,-151.89 1598.59,-151.89"/>
<polygon fill="black" stroke="black" points="1595.09,-151.89 1598.59,-161.89 1602.09,-151.89 1595.09,-151.89"/>
</g>
<!-- RegisterComponent -->
<g id="node10" class="node">
<title>RegisterComponent</title>
<polygon fill="#ffffb3" stroke="black" points="1647.98,-122 1520.02,-122 1520.02,-86 1647.98,-86 1647.98,-122"/>
<text text-anchor="middle" x="1584" y="-99.8" font-family="Times,serif" font-size="14.00">RegisterComponent</text>
</g>
<!-- RegisterComponent&#45;&gt;AuthModule -->
<g id="edge9" class="edge">
<title>RegisterComponent&#45;&gt;AuthModule</title>
<path fill="none" stroke="black" d="M1569.41,-122.01C1569.41,-122.01 1569.41,-151.85 1569.41,-151.85"/>
<polygon fill="black" stroke="black" points="1565.91,-151.85 1569.41,-161.85 1572.91,-151.85 1565.91,-151.85"/>
</g>
<!-- HideElementDirective -->
<g id="node11" class="node">
<title>HideElementDirective</title>
<polygon fill="#ffffb3" stroke="black" points="2983.95,-266 2842.05,-266 2842.05,-230 2983.95,-230 2983.95,-266"/>
<text text-anchor="middle" x="2913" y="-243.8" font-family="Times,serif" font-size="14.00">HideElementDirective</text>
</g>
<!-- HideElementDirective&#45;&gt;CoreModule -->
<g id="edge10" class="edge">
<title>HideElementDirective&#45;&gt;CoreModule</title>
<path fill="none" stroke="black" d="M2873,-229.79C2873,-224.45 2873,-220 2873,-220 2873,-220 1939.32,-220 1939.32,-220 1939.32,-220 1939.32,-208.13 1939.32,-208.13"/>
<polygon fill="black" stroke="black" points="1942.82,-208.13 1939.32,-198.13 1935.82,-208.13 1942.82,-208.13"/>
</g>
<!-- ReadOnlyDirective -->
<g id="node12" class="node">
<title>ReadOnlyDirective</title>
<polygon fill="#ffffb3" stroke="black" points="2824.35,-266 2699.65,-266 2699.65,-230 2824.35,-230 2824.35,-266"/>
<text text-anchor="middle" x="2762" y="-243.8" font-family="Times,serif" font-size="14.00">ReadOnlyDirective</text>
</g>
<!-- ReadOnlyDirective&#45;&gt;CoreModule -->
<g id="edge11" class="edge">
<title>ReadOnlyDirective&#45;&gt;CoreModule</title>
<path fill="none" stroke="black" d="M2705.38,-229.78C2705.38,-209.63 2705.38,-180 2705.38,-180 2705.38,-180 2001.44,-180 2001.44,-180"/>
<polygon fill="black" stroke="black" points="2001.44,-176.5 1991.44,-180 2001.44,-183.5 2001.44,-176.5"/>
</g>
<!-- TransformUsernamePipe -->
<g id="node13" class="node">
<title>TransformUsernamePipe</title>
<polygon fill="#ffffb3" stroke="black" points="2681.22,-266 2524.78,-266 2524.78,-230 2681.22,-230 2681.22,-266"/>
<text text-anchor="middle" x="2603" y="-243.8" font-family="Times,serif" font-size="14.00">TransformUsernamePipe</text>
</g>
<!-- TransformUsernamePipe&#45;&gt;CoreModule -->
<g id="edge12" class="edge">
<title>TransformUsernamePipe&#45;&gt;CoreModule</title>
<path fill="none" stroke="black" d="M2545.22,-229.78C2545.22,-211.17 2545.22,-185 2545.22,-185 2545.22,-185 2001.43,-185 2001.43,-185"/>
<polygon fill="black" stroke="black" points="2001.43,-181.5 1991.43,-185 2001.43,-188.5 2001.43,-181.5"/>
</g>
<!-- HomeComponent -->
<g id="node17" class="node">
<title>HomeComponent</title>
<polygon fill="#ffffb3" stroke="black" points="2119.55,-122 2004.45,-122 2004.45,-86 2119.55,-86 2119.55,-122"/>
<text text-anchor="middle" x="2062" y="-99.8" font-family="Times,serif" font-size="14.00">HomeComponent</text>
</g>
<!-- HomeComponent&#45;&gt;HomeModule -->
<g id="edge16" class="edge">
<title>HomeComponent&#45;&gt;HomeModule</title>
<path fill="none" stroke="black" d="M2017.56,-122.19C2017.56,-137.18 2017.56,-156 2017.56,-156 2017.56,-156 1721.31,-156 1721.31,-156 1721.31,-156 1721.31,-156.58 1721.31,-156.58"/>
<polygon fill="black" stroke="black" points="1717.81,-151.81 1721.31,-161.81 1724.81,-151.81 1717.81,-151.81"/>
</g>
<!-- HomePageTripComponent -->
<g id="node18" class="node">
<title>HomePageTripComponent</title>
<polygon fill="#ffffb3" stroke="black" points="1986.36,-122 1819.64,-122 1819.64,-86 1986.36,-86 1986.36,-122"/>
<text text-anchor="middle" x="1903" y="-99.8" font-family="Times,serif" font-size="14.00">HomePageTripComponent</text>
</g>
<!-- HomePageTripComponent&#45;&gt;HomeModule -->
<g id="edge17" class="edge">
<title>HomePageTripComponent&#45;&gt;HomeModule</title>
<path fill="none" stroke="black" d="M1852.98,-122.04C1852.98,-134.56 1852.98,-149 1852.98,-149 1852.98,-149 1702.75,-149 1702.75,-149 1702.75,-149 1702.75,-151.97 1702.75,-151.97"/>
<polygon fill="black" stroke="black" points="1699.25,-151.97 1702.75,-161.97 1706.25,-151.97 1699.25,-151.97"/>
</g>
<!-- NavComponent -->
<g id="node19" class="node">
<title>NavComponent</title>
<polygon fill="#ffffb3" stroke="black" points="1480.15,-122 1375.85,-122 1375.85,-86 1480.15,-86 1480.15,-122"/>
<text text-anchor="middle" x="1428" y="-99.8" font-family="Times,serif" font-size="14.00">NavComponent</text>
</g>
<!-- NavComponent&#45;&gt;SharedModule -->
<g id="edge18" class="edge">
<title>NavComponent&#45;&gt;SharedModule</title>
<path fill="none" stroke="black" d="M1466.19,-122.01C1466.19,-122.01 1466.19,-151.85 1466.19,-151.85"/>
<polygon fill="black" stroke="black" points="1462.69,-151.85 1466.19,-161.85 1469.69,-151.85 1462.69,-151.85"/>
</g>
<!-- NotFoundComponent -->
<g id="node20" class="node">
<title>NotFoundComponent</title>
<polygon fill="#ffffb3" stroke="black" points="1358.11,-122 1219.89,-122 1219.89,-86 1358.11,-86 1358.11,-122"/>
<text text-anchor="middle" x="1289" y="-99.8" font-family="Times,serif" font-size="14.00">NotFoundComponent</text>
</g>
<!-- NotFoundComponent&#45;&gt;SharedModule -->
<g id="edge19" class="edge">
<title>NotFoundComponent&#45;&gt;SharedModule</title>
<path fill="none" stroke="black" d="M1326.17,-122.17C1326.17,-126.05 1326.17,-129 1326.17,-129 1326.17,-129 1452.06,-129 1452.06,-129 1452.06,-129 1452.06,-151.88 1452.06,-151.88"/>
<polygon fill="black" stroke="black" points="1448.56,-151.88 1452.06,-161.88 1455.56,-151.88 1448.56,-151.88"/>
</g>
<!-- TripComponent -->
<g id="node22" class="node">
<title>TripComponent</title>
<polygon fill="#ffffb3" stroke="black" points="3027.94,-122 2922.06,-122 2922.06,-86 3027.94,-86 3027.94,-122"/>
<text text-anchor="middle" x="2975" y="-99.8" font-family="Times,serif" font-size="14.00">TripComponent</text>
</g>
<!-- TripModule -->
<g id="node29" class="node">
<title>TripModule</title>
<polygon fill="#8dd3c7" stroke="black" points="2794.65,-198 2791.65,-202 2770.65,-202 2767.65,-198 2711.35,-198 2711.35,-162 2794.65,-162 2794.65,-198"/>
<text text-anchor="middle" x="2753" y="-175.8" font-family="Times,serif" font-size="14.00">TripModule</text>
</g>
<!-- TripComponent&#45;&gt;TripModule -->
<g id="edge21" class="edge">
<title>TripComponent&#45;&gt;TripModule</title>
<path fill="none" stroke="black" d="M2953.13,-122.31C2953.13,-142.15 2953.13,-171 2953.13,-171 2953.13,-171 2804.95,-171 2804.95,-171"/>
<polygon fill="black" stroke="black" points="2804.95,-167.5 2794.95,-171 2804.95,-174.5 2804.95,-167.5"/>
</g>
<!-- TripCreateComponent -->
<g id="node23" class="node">
<title>TripCreateComponent</title>
<polygon fill="#ffffb3" stroke="black" points="2903.97,-122 2762.03,-122 2762.03,-86 2903.97,-86 2903.97,-122"/>
<text text-anchor="middle" x="2833" y="-99.8" font-family="Times,serif" font-size="14.00">TripCreateComponent</text>
</g>
<!-- TripCreateComponent&#45;&gt;TripModule -->
<g id="edge22" class="edge">
<title>TripCreateComponent&#45;&gt;TripModule</title>
<path fill="none" stroke="black" d="M2778.42,-122.01C2778.42,-122.01 2778.42,-151.85 2778.42,-151.85"/>
<polygon fill="black" stroke="black" points="2774.92,-151.85 2778.42,-161.85 2781.92,-151.85 2774.92,-151.85"/>
</g>
<!-- TripDetailComponent -->
<g id="node24" class="node">
<title>TripDetailComponent</title>
<polygon fill="#ffffb3" stroke="black" points="2743.64,-122 2604.36,-122 2604.36,-86 2743.64,-86 2743.64,-122"/>
<text text-anchor="middle" x="2674" y="-99.8" font-family="Times,serif" font-size="14.00">TripDetailComponent</text>
</g>
<!-- TripDetailComponent&#45;&gt;TripModule -->
<g id="edge23" class="edge">
<title>TripDetailComponent&#45;&gt;TripModule</title>
<path fill="none" stroke="black" d="M2727.5,-122.01C2727.5,-122.01 2727.5,-151.85 2727.5,-151.85"/>
<polygon fill="black" stroke="black" points="2724,-151.85 2727.5,-161.85 2731,-151.85 2724,-151.85"/>
</g>
<!-- TripEditComponent -->
<g id="node25" class="node">
<title>TripEditComponent</title>
<polygon fill="#ffffb3" stroke="black" points="2586.27,-122 2457.73,-122 2457.73,-86 2586.27,-86 2586.27,-122"/>
<text text-anchor="middle" x="2522" y="-99.8" font-family="Times,serif" font-size="14.00">TripEditComponent</text>
</g>
<!-- TripEditComponent&#45;&gt;TripModule -->
<g id="edge24" class="edge">
<title>TripEditComponent&#45;&gt;TripModule</title>
<path fill="none" stroke="black" d="M2565.8,-122.22C2565.8,-140.83 2565.8,-167 2565.8,-167 2565.8,-167 2700.99,-167 2700.99,-167"/>
<polygon fill="black" stroke="black" points="2700.99,-170.5 2710.99,-167 2700.99,-163.5 2700.99,-170.5"/>
</g>
<!-- TripListComponent -->
<g id="node26" class="node">
<title>TripListComponent</title>
<polygon fill="#ffffb3" stroke="black" points="2439.71,-122 2312.29,-122 2312.29,-86 2439.71,-86 2439.71,-122"/>
<text text-anchor="middle" x="2376" y="-99.8" font-family="Times,serif" font-size="14.00">TripListComponent</text>
</g>
<!-- TripListComponent&#45;&gt;TripModule -->
<g id="edge25" class="edge">
<title>TripListComponent&#45;&gt;TripModule</title>
<path fill="none" stroke="black" d="M2411.5,-122.31C2411.5,-142.15 2411.5,-171 2411.5,-171 2411.5,-171 2701.13,-171 2701.13,-171"/>
<polygon fill="black" stroke="black" points="2701.13,-174.5 2711.13,-171 2701.12,-167.5 2701.13,-174.5"/>
</g>
<!-- TripMembersComponent -->
<g id="node27" class="node">
<title>TripMembersComponent</title>
<polygon fill="#ffffb3" stroke="black" points="3396.31,-122 3237.69,-122 3237.69,-86 3396.31,-86 3396.31,-122"/>
<text text-anchor="middle" x="3317" y="-99.8" font-family="Times,serif" font-size="14.00">TripMembersComponent</text>
</g>
<!-- TripMembersComponent&#45;&gt;TripModule -->
<g id="edge26" class="edge">
<title>TripMembersComponent&#45;&gt;TripModule</title>
<path fill="none" stroke="black" d="M3317,-122.03C3317,-146.98 3317,-189 3317,-189 3317,-189 2804.93,-189 2804.93,-189"/>
<polygon fill="black" stroke="black" points="2804.93,-185.5 2794.93,-189 2804.93,-192.5 2804.93,-185.5"/>
</g>
<!-- TripSearchFormComponent -->
<g id="node28" class="node">
<title>TripSearchFormComponent</title>
<polygon fill="#ffffb3" stroke="black" points="3219.86,-122 3046.14,-122 3046.14,-86 3219.86,-86 3219.86,-122"/>
<text text-anchor="middle" x="3133" y="-99.8" font-family="Times,serif" font-size="14.00">TripSearchFormComponent</text>
</g>
<!-- TripSearchFormComponent&#45;&gt;TripModule -->
<g id="edge27" class="edge">
<title>TripSearchFormComponent&#45;&gt;TripModule</title>
<path fill="none" stroke="black" d="M3133,-122.01C3133,-144.49 3133,-180 3133,-180 3133,-180 2804.75,-180 2804.75,-180"/>
<polygon fill="black" stroke="black" points="2804.75,-176.5 2794.75,-180 2804.75,-183.5 2804.75,-176.5"/>
</g>
<!-- TripRoutingModule -->
<g id="node30" class="node">
<title>TripRoutingModule</title>
<polygon fill="#8dd3c7" stroke="black" points="2288.27,-122 2285.27,-126 2264.27,-126 2261.27,-122 2159.73,-122 2159.73,-86 2288.27,-86 2288.27,-122"/>
<text text-anchor="middle" x="2224" y="-99.8" font-family="Times,serif" font-size="14.00">TripRoutingModule</text>
</g>
<!-- TripRoutingModule&#45;&gt;TripModule -->
<g id="edge28" class="edge">
<title>TripRoutingModule&#45;&gt;TripModule</title>
<path fill="none" stroke="black" d="M2261.87,-122.17C2261.87,-143.5 2261.87,-176 2261.87,-176 2261.87,-176 2701.13,-176 2701.13,-176"/>
<polygon fill="black" stroke="black" points="2701.13,-179.5 2711.13,-176 2701.13,-172.5 2701.13,-179.5"/>
</g>
<!-- UserMessageComponent -->
<g id="node31" class="node">
<title>UserMessageComponent</title>
<polygon fill="#ffffb3" stroke="black" points="516.24,-198 359.76,-198 359.76,-162 516.24,-162 516.24,-198"/>
<text text-anchor="middle" x="438" y="-175.8" font-family="Times,serif" font-size="14.00">UserMessageComponent</text>
</g>
<!-- UserMessageComponent&#45;&gt;UserModule -->
<g id="edge29" class="edge">
<title>UserMessageComponent&#45;&gt;UserModule</title>
<path fill="none" stroke="black" d="M438,-198.02C438,-215.37 438,-239 438,-239 438,-239 658.89,-239 658.89,-239"/>
<polygon fill="black" stroke="black" points="658.89,-242.5 668.89,-239 658.89,-235.5 658.89,-242.5"/>
</g>
<!-- UserMessagesComponent -->
<g id="node32" class="node">
<title>UserMessagesComponent</title>
<polygon fill="#ffffb3" stroke="black" points="342.18,-198 179.82,-198 179.82,-162 342.18,-162 342.18,-198"/>
<text text-anchor="middle" x="261" y="-175.8" font-family="Times,serif" font-size="14.00">UserMessagesComponent</text>
</g>
<!-- UserMessagesComponent&#45;&gt;UserModule -->
<g id="edge30" class="edge">
<title>UserMessagesComponent&#45;&gt;UserModule</title>
<path fill="none" stroke="black" d="M261,-198.22C261,-218.37 261,-248 261,-248 261,-248 658.76,-248 658.76,-248"/>
<polygon fill="black" stroke="black" points="658.76,-251.5 668.76,-248 658.76,-244.5 658.76,-251.5"/>
</g>
<!-- UserNotificationFormComponent -->
<g id="node33" class="node">
<title>UserNotificationFormComponent</title>
<polygon fill="#ffffb3" stroke="black" points="1253.74,-198 1048.26,-198 1048.26,-162 1253.74,-162 1253.74,-198"/>
<text text-anchor="middle" x="1151" y="-175.8" font-family="Times,serif" font-size="14.00">UserNotificationFormComponent</text>
</g>
<!-- UserNotificationFormComponent&#45;&gt;UserModule -->
<g id="edge31" class="edge">
<title>UserNotificationFormComponent&#45;&gt;UserModule</title>
<path fill="none" stroke="black" d="M1151,-198.11C1151,-217.34 1151,-245 1151,-245 1151,-245 765.29,-245 765.29,-245"/>
<polygon fill="black" stroke="black" points="765.29,-241.5 755.29,-245 765.29,-248.5 765.29,-241.5"/>
</g>
<!-- UserProfileComponent -->
<g id="node34" class="node">
<title>UserProfileComponent</title>
<polygon fill="#ffffb3" stroke="black" points="1029.86,-198 884.14,-198 884.14,-162 1029.86,-162 1029.86,-198"/>
<text text-anchor="middle" x="957" y="-175.8" font-family="Times,serif" font-size="14.00">UserProfileComponent</text>
</g>
<!-- UserProfileComponent&#45;&gt;UserModule -->
<g id="edge32" class="edge">
<title>UserProfileComponent&#45;&gt;UserModule</title>
<path fill="none" stroke="black" d="M957,-198.03C957,-215.06 957,-238 957,-238 957,-238 765.24,-238 765.24,-238"/>
<polygon fill="black" stroke="black" points="765.24,-234.5 755.24,-238 765.24,-241.5 765.24,-234.5"/>
</g>
<!-- UserTripComponent -->
<g id="node35" class="node">
<title>UserTripComponent</title>
<polygon fill="#ffffb3" stroke="black" points="865.86,-198 734.14,-198 734.14,-162 865.86,-162 865.86,-198"/>
<text text-anchor="middle" x="800" y="-175.8" font-family="Times,serif" font-size="14.00">UserTripComponent</text>
</g>
<!-- UserTripComponent&#45;&gt;UserModule -->
<g id="edge33" class="edge">
<title>UserTripComponent&#45;&gt;UserModule</title>
<path fill="none" stroke="black" d="M741.04,-198.22C741.04,-198.22 741.04,-219.73 741.04,-219.73"/>
<polygon fill="black" stroke="black" points="737.54,-219.73 741.04,-229.73 744.54,-219.73 737.54,-219.73"/>
</g>
<!-- UserUploadPhotoComponent -->
<g id="node36" class="node">
<title>UserUploadPhotoComponent</title>
<polygon fill="#ffffb3" stroke="black" points="715.64,-198 534.36,-198 534.36,-162 715.64,-162 715.64,-198"/>
<text text-anchor="middle" x="625" y="-175.8" font-family="Times,serif" font-size="14.00">UserUploadPhotoComponent</text>
</g>
<!-- UserUploadPhotoComponent&#45;&gt;UserModule -->
<g id="edge34" class="edge">
<title>UserUploadPhotoComponent&#45;&gt;UserModule</title>
<path fill="none" stroke="black" d="M692.42,-198.22C692.42,-198.22 692.42,-219.73 692.42,-219.73"/>
<polygon fill="black" stroke="black" points="688.92,-219.73 692.42,-229.73 695.92,-219.73 688.92,-219.73"/>
</g>
<!-- UserRoutingModule -->
<g id="node38" class="node">
<title>UserRoutingModule</title>
<polygon fill="#8dd3c7" stroke="black" points="155.59,-198 152.59,-202 131.59,-202 128.59,-198 24.41,-198 24.41,-162 155.59,-162 155.59,-198"/>
<text text-anchor="middle" x="90" y="-175.8" font-family="Times,serif" font-size="14.00">UserRoutingModule</text>
</g>
<!-- UserRoutingModule&#45;&gt;UserModule -->
<g id="edge36" class="edge">
<title>UserRoutingModule&#45;&gt;UserModule</title>
<path fill="none" stroke="black" d="M90,-198.25C90,-221.02 90,-257 90,-257 90,-257 658.76,-257 658.76,-257"/>
<polygon fill="black" stroke="black" points="658.76,-260.5 668.76,-257 658.76,-253.5 658.76,-260.5"/>
</g>
</g>
</svg>
