<?xml version="1.0" encoding="UTF-8" standalone="no"?>
<!DOCTYPE svg PUBLIC "-//W3C//DTD SVG 1.1//EN"
 "http://www.w3.org/Graphics/SVG/1.1/DTD/svg11.dtd">
<!-- Generated by graphviz version 2.44.1 (20200629.0846)
 -->
<!-- Title: dependencies Pages: 1 -->
<svg width="4703pt" height="366pt"
 viewBox="0.00 0.00 4703.00 366.00" xmlns="http://www.w3.org/2000/svg" xmlns:xlink="http://www.w3.org/1999/xlink">
<g id="graph0" class="graph" transform="scale(1 1) rotate(0) translate(4 362)">
<title>dependencies</title>
<polygon fill="white" stroke="transparent" points="-4,4 -4,-362 4699,-362 4699,4 -4,4"/>
<text text-anchor="start" x="2326.51" y="-42.4" font-family="sans-serif" font-weight="bold" font-size="14.00">Legend</text>
<polygon fill="#ffffb3" stroke="transparent" points="2113.5,-10 2113.5,-30 2133.5,-30 2133.5,-10 2113.5,-10"/>
<text text-anchor="start" x="2137.13" y="-15.4" font-family="sans-serif" font-size="14.00"> &#160;Declarations</text>
<polygon fill="#8dd3c7" stroke="transparent" points="2226.5,-10 2226.5,-30 2246.5,-30 2246.5,-10 2226.5,-10"/>
<text text-anchor="start" x="2250.23" y="-15.4" font-family="sans-serif" font-size="14.00"> &#160;Module</text>
<polygon fill="#80b1d3" stroke="transparent" points="2312.5,-10 2312.5,-30 2332.5,-30 2332.5,-10 2312.5,-10"/>
<text text-anchor="start" x="2336.28" y="-15.4" font-family="sans-serif" font-size="14.00"> &#160;Bootstrap</text>
<polygon fill="#fdb462" stroke="transparent" points="2409.5,-10 2409.5,-30 2429.5,-30 2429.5,-10 2409.5,-10"/>
<text text-anchor="start" x="2433.17" y="-15.4" font-family="sans-serif" font-size="14.00"> &#160;Providers</text>
<polygon fill="#fb8072" stroke="transparent" points="2505.5,-10 2505.5,-30 2525.5,-30 2525.5,-10 2505.5,-10"/>
<text text-anchor="start" x="2529.23" y="-15.4" font-family="sans-serif" font-size="14.00"> &#160;Exports</text>
<g id="clust47" class="cluster">
<title>cluster_TripModule</title>
<polygon fill="none" stroke="black" stroke-dasharray="1,5" points="3419,-70 3419,-206 4687,-206 4687,-70 3419,-70"/>
</g>
<g id="clust48" class="cluster">
<title>cluster_TripModule_declarations</title>
<polygon fill="none" stroke="black" points="3579,-78 3579,-130 4679,-130 4679,-78 3579,-78"/>
</g>
<g id="clust56" class="cluster">
<title>cluster_TripModule_imports</title>
<polygon fill="none" stroke="black" points="3427,-78 3427,-130 3571,-130 3571,-78 3427,-78"/>
</g>
<g id="clust39" class="cluster">
<title>cluster_SharedModule</title>
<polygon fill="none" stroke="black" stroke-dasharray="1,5" points="3119,-70 3119,-282 3411,-282 3411,-70 3119,-70"/>
</g>
<g id="clust44" class="cluster">
<title>cluster_SharedModule_exports</title>
<polygon fill="none" stroke="black" points="3142,-222 3142,-274 3266,-274 3266,-222 3142,-222"/>
</g>
<g id="clust40" class="cluster">
<title>cluster_SharedModule_declarations</title>
<polygon fill="none" stroke="black" points="3127,-78 3127,-130 3403,-130 3403,-78 3127,-78"/>
</g>
<g id="clust31" class="cluster">
<title>cluster_HomeModule</title>
<polygon fill="none" stroke="black" stroke-dasharray="1,5" points="1509,-70 1509,-206 1841,-206 1841,-70 1509,-70"/>
</g>
<g id="clust32" class="cluster">
<title>cluster_HomeModule_declarations</title>
<polygon fill="none" stroke="black" points="1517,-78 1517,-130 1833,-130 1833,-78 1517,-78"/>
</g>
<g id="clust1" class="cluster">
<title>cluster_AppModule</title>
<polygon fill="none" stroke="black" stroke-dasharray="1,5" points="1001,-146 1001,-350 1501,-350 1501,-146 1001,-146"/>
</g>
<g id="clust2" class="cluster">
<title>cluster_AppModule_declarations</title>
<polygon fill="none" stroke="black" points="1371,-154 1371,-206 1493,-206 1493,-154 1371,-154"/>
</g>
<g id="clust4" class="cluster">
<title>cluster_AppModule_imports</title>
<polygon fill="none" stroke="black" points="1009,-154 1009,-206 1363,-206 1363,-154 1009,-154"/>
</g>
<g id="clust6" class="cluster">
<title>cluster_AppModule_bootstrap</title>
<polygon fill="none" stroke="black" points="1299,-290 1299,-342 1423,-342 1423,-290 1299,-290"/>
</g>
<g id="clust66" class="cluster">
<title>cluster_UserModule</title>
<polygon fill="none" stroke="black" stroke-dasharray="1,5" points="1849,-146 1849,-274 3111,-274 3111,-146 1849,-146"/>
</g>
<g id="clust67" class="cluster">
<title>cluster_UserModule_declarations</title>
<polygon fill="none" stroke="black" points="2013,-154 2013,-206 3103,-206 3103,-154 2013,-154"/>
</g>
<g id="clust74" class="cluster">
<title>cluster_UserModule_imports</title>
<polygon fill="none" stroke="black" points="1857,-154 1857,-206 2005,-206 2005,-154 1857,-154"/>
</g>
<g id="clust14" class="cluster">
<title>cluster_AuthModule</title>
<polygon fill="none" stroke="black" stroke-dasharray="1,5" points="1015,-70 1015,-138 1307,-138 1307,-70 1015,-70"/>
</g>
<g id="clust15" class="cluster">
<title>cluster_AuthModule_declarations</title>
<polygon fill="none" stroke="black" points="1023,-78 1023,-130 1299,-130 1299,-78 1023,-78"/>
</g>
<g id="clust22" class="cluster">
<title>cluster_CoreModule</title>
<polygon fill="none" stroke="black" stroke-dasharray="1,5" points="8,-214 8,-282 993,-282 993,-214 8,-214"/>
</g>
<g id="clust28" class="cluster">
<title>cluster_CoreModule_exports</title>
<polygon fill="none" stroke="black" points="499,-222 499,-274 985,-274 985,-222 499,-222"/>
</g>
<g id="clust23" class="cluster">
<title>cluster_CoreModule_declarations</title>
<polygon fill="none" stroke="black" points="16,-222 16,-274 491,-274 491,-222 16,-222"/>
</g>
<!-- AppComponent -->
<g id="node1" class="node">
<title>AppComponent</title>
<polygon fill="#ffffb3" stroke="black" points="1484.94,-198 1379.06,-198 1379.06,-162 1484.94,-162 1484.94,-198"/>
<text text-anchor="middle" x="1432" y="-175.8" font-family="Times,serif" font-size="14.00">AppComponent</text>
</g>
<!-- AppModule -->
<g id="node2" class="node">
<title>AppModule</title>
<polygon fill="#8dd3c7" stroke="black" points="1402.66,-266 1399.66,-270 1378.66,-270 1375.66,-266 1319.34,-266 1319.34,-230 1402.66,-230 1402.66,-266"/>
<text text-anchor="middle" x="1361" y="-243.8" font-family="Times,serif" font-size="14.00">AppModule</text>
</g>
<!-- AppComponent&#45;&gt;AppModule -->
<g id="edge1" class="edge">
<title>AppComponent&#45;&gt;AppModule</title>
<path fill="none" stroke="black" d="M1387.13,-198.22C1387.13,-198.22 1387.13,-219.73 1387.13,-219.73"/>
<polygon fill="black" stroke="black" points="1383.63,-219.73 1387.13,-229.73 1390.63,-219.73 1383.63,-219.73"/>
</g>
<!-- AppComponent  -->
<g id="node8" class="node">
<title>AppComponent </title>
<polygon fill="#80b1d3" stroke="black" points="1415.44,-334 1306.56,-334 1306.56,-298 1415.44,-298 1415.44,-334"/>
<text text-anchor="middle" x="1361" y="-311.8" font-family="Times,serif" font-size="14.00">AppComponent </text>
</g>
<!-- AppModule&#45;&gt;AppComponent  -->
<g id="edge7" class="edge">
<title>AppModule&#45;&gt;AppComponent </title>
<path fill="none" stroke="black" stroke-dasharray="1,5" d="M1361,-266.22C1361,-266.22 1361,-287.73 1361,-287.73"/>
<polygon fill="black" stroke="black" points="1357.5,-287.73 1361,-297.73 1364.5,-287.73 1357.5,-287.73"/>
</g>
<!-- AppRoutingModule -->
<g id="node3" class="node">
<title>AppRoutingModule</title>
<polygon fill="#8dd3c7" stroke="black" points="1355.27,-198 1352.27,-202 1331.27,-202 1328.27,-198 1226.73,-198 1226.73,-162 1355.27,-162 1355.27,-198"/>
<text text-anchor="middle" x="1291" y="-175.8" font-family="Times,serif" font-size="14.00">AppRoutingModule</text>
</g>
<!-- AppRoutingModule&#45;&gt;AppModule -->
<g id="edge2" class="edge">
<title>AppRoutingModule&#45;&gt;AppModule</title>
<path fill="none" stroke="black" d="M1337.28,-198.22C1337.28,-198.22 1337.28,-219.73 1337.28,-219.73"/>
<polygon fill="black" stroke="black" points="1333.78,-219.73 1337.28,-229.73 1340.78,-219.73 1333.78,-219.73"/>
</g>
<!-- AuthModule -->
<g id="node4" class="node">
<title>AuthModule</title>
<polygon fill="#8dd3c7" stroke="black" points="1208.55,-198 1205.55,-202 1184.55,-202 1181.55,-198 1121.45,-198 1121.45,-162 1208.55,-162 1208.55,-198"/>
<text text-anchor="middle" x="1165" y="-175.8" font-family="Times,serif" font-size="14.00">AuthModule</text>
</g>
<!-- AuthModule&#45;&gt;AppModule -->
<g id="edge3" class="edge">
<title>AuthModule&#45;&gt;AppModule</title>
<path fill="none" stroke="black" d="M1165,-198.02C1165,-215.37 1165,-239 1165,-239 1165,-239 1308.95,-239 1308.95,-239"/>
<polygon fill="black" stroke="black" points="1308.95,-242.5 1318.95,-239 1308.95,-235.5 1308.95,-242.5"/>
</g>
<!-- CoreModule -->
<g id="node5" class="node">
<title>CoreModule</title>
<polygon fill="#8dd3c7" stroke="black" points="1103.26,-198 1100.26,-202 1079.26,-202 1076.26,-198 1016.74,-198 1016.74,-162 1103.26,-162 1103.26,-198"/>
<text text-anchor="middle" x="1060" y="-175.8" font-family="Times,serif" font-size="14.00">CoreModule</text>
</g>
<!-- CoreModule&#45;&gt;AppModule -->
<g id="edge4" class="edge">
<title>CoreModule&#45;&gt;AppModule</title>
<path fill="none" stroke="black" d="M1081.69,-198.22C1081.69,-218.37 1081.69,-248 1081.69,-248 1081.69,-248 1309.18,-248 1309.18,-248"/>
<polygon fill="black" stroke="black" points="1309.18,-251.5 1319.18,-248 1309.18,-244.5 1309.18,-251.5"/>
</g>
<!-- HideElementDirective  -->
<g id="node14" class="node">
<title>HideElementDirective </title>
<polygon fill="#fb8072" stroke="black" points="976.95,-266 831.05,-266 831.05,-230 976.95,-230 976.95,-266"/>
<text text-anchor="middle" x="904" y="-243.8" font-family="Times,serif" font-size="14.00">HideElementDirective </text>
</g>
<!-- CoreModule&#45;&gt;HideElementDirective  -->
<g id="edge13" class="edge">
<title>CoreModule&#45;&gt;HideElementDirective </title>
<path fill="none" stroke="black" stroke-dasharray="5,2" d="M1060,-198.25C1060,-221.02 1060,-257 1060,-257 1060,-257 986.98,-257 986.98,-257"/>
<polygon fill="black" stroke="black" points="986.98,-253.5 976.98,-257 986.98,-260.5 986.98,-253.5"/>
</g>
<!-- ReadOnlyDirective  -->
<g id="node15" class="node">
<title>ReadOnlyDirective </title>
<polygon fill="#fb8072" stroke="black" points="813.35,-266 684.65,-266 684.65,-230 813.35,-230 813.35,-266"/>
<text text-anchor="middle" x="749" y="-243.8" font-family="Times,serif" font-size="14.00">ReadOnlyDirective </text>
</g>
<!-- CoreModule&#45;&gt;ReadOnlyDirective  -->
<g id="edge14" class="edge">
<title>CoreModule&#45;&gt;ReadOnlyDirective </title>
<path fill="none" stroke="black" stroke-dasharray="5,2" d="M1016.43,-192C930.84,-192 749,-192 749,-192 749,-192 749,-219.97 749,-219.97"/>
<polygon fill="black" stroke="black" points="745.5,-219.97 749,-229.97 752.5,-219.97 745.5,-219.97"/>
</g>
<!-- TransformUsernamePipe  -->
<g id="node16" class="node">
<title>TransformUsernamePipe </title>
<polygon fill="#fb8072" stroke="black" points="667.22,-266 506.78,-266 506.78,-230 667.22,-230 667.22,-266"/>
<text text-anchor="middle" x="587" y="-243.8" font-family="Times,serif" font-size="14.00">TransformUsernamePipe </text>
</g>
<!-- CoreModule&#45;&gt;TransformUsernamePipe  -->
<g id="edge15" class="edge">
<title>CoreModule&#45;&gt;TransformUsernamePipe </title>
<path fill="none" stroke="black" stroke-dasharray="5,2" d="M1016.35,-186C899.25,-186 587,-186 587,-186 587,-186 587,-219.73 587,-219.73"/>
<polygon fill="black" stroke="black" points="583.5,-219.73 587,-229.73 590.5,-219.73 583.5,-219.73"/>
</g>
<!-- UserModule -->
<g id="node37" class="node">
<title>UserModule</title>
<polygon fill="#8dd3c7" stroke="black" points="2414.98,-266 2411.98,-270 2390.98,-270 2387.98,-266 2329.02,-266 2329.02,-230 2414.98,-230 2414.98,-266"/>
<text text-anchor="middle" x="2372" y="-243.8" font-family="Times,serif" font-size="14.00">UserModule</text>
</g>
<!-- CoreModule&#45;&gt;UserModule -->
<g id="edge35" class="edge">
<title>CoreModule&#45;&gt;UserModule</title>
<path fill="none" stroke="black" d="M1038.31,-198.13C1038.31,-208.71 1038.31,-220 1038.31,-220 1038.31,-220 2338.46,-220 2338.46,-220 2338.46,-220 2338.46,-220.98 2338.46,-220.98"/>
<polygon fill="black" stroke="black" points="2334.96,-219.79 2338.46,-229.79 2341.96,-219.79 2334.96,-219.79"/>
</g>
<!-- HomeModule -->
<g id="node6" class="node">
<title>HomeModule</title>
<polygon fill="#8dd3c7" stroke="black" points="1654.76,-198 1651.76,-202 1630.76,-202 1627.76,-198 1561.24,-198 1561.24,-162 1654.76,-162 1654.76,-198"/>
<text text-anchor="middle" x="1608" y="-175.8" font-family="Times,serif" font-size="14.00">HomeModule</text>
</g>
<!-- HomeModule&#45;&gt;AppModule -->
<g id="edge5" class="edge">
<title>HomeModule&#45;&gt;AppModule</title>
<path fill="none" stroke="black" d="M1608,-198.25C1608,-221.02 1608,-257 1608,-257 1608,-257 1412.9,-257 1412.9,-257"/>
<polygon fill="black" stroke="black" points="1412.9,-253.5 1402.9,-257 1412.9,-260.5 1412.9,-253.5"/>
</g>
<!-- SharedModule -->
<g id="node7" class="node">
<title>SharedModule</title>
<polygon fill="#8dd3c7" stroke="black" points="3253.42,-198 3250.42,-202 3229.42,-202 3226.42,-198 3154.58,-198 3154.58,-162 3253.42,-162 3253.42,-198"/>
<text text-anchor="middle" x="3204" y="-175.8" font-family="Times,serif" font-size="14.00">SharedModule</text>
</g>
<!-- SharedModule&#45;&gt;AppModule -->
<g id="edge6" class="edge">
<title>SharedModule&#45;&gt;AppModule</title>
<path fill="none" stroke="black" d="M3187.6,-198.2C3187.6,-204.03 3187.6,-209 3187.6,-209 3187.6,-209 1394.98,-209 1394.98,-209 1394.98,-209 1394.98,-219.87 1394.98,-219.87"/>
<polygon fill="black" stroke="black" points="1391.48,-219.87 1394.98,-229.87 1398.48,-219.87 1391.48,-219.87"/>
</g>
<!-- NavComponent  -->
<g id="node21" class="node">
<title>NavComponent </title>
<polygon fill="#fb8072" stroke="black" points="3258.15,-266 3149.85,-266 3149.85,-230 3258.15,-230 3258.15,-266"/>
<text text-anchor="middle" x="3204" y="-243.8" font-family="Times,serif" font-size="14.00">NavComponent </text>
</g>
<!-- SharedModule&#45;&gt;NavComponent  -->
<g id="edge20" class="edge">
<title>SharedModule&#45;&gt;NavComponent </title>
<path fill="none" stroke="black" stroke-dasharray="5,2" d="M3220.4,-198.22C3220.4,-198.22 3220.4,-219.73 3220.4,-219.73"/>
<polygon fill="black" stroke="black" points="3216.9,-219.73 3220.4,-229.73 3223.9,-219.73 3216.9,-219.73"/>
</g>
<!-- LoginComponent -->
<g id="node9" class="node">
<title>LoginComponent</title>
<polygon fill="#ffffb3" stroke="black" points="1291.28,-122 1176.72,-122 1176.72,-86 1291.28,-86 1291.28,-122"/>
<text text-anchor="middle" x="1234" y="-99.8" font-family="Times,serif" font-size="14.00">LoginComponent</text>
</g>
<!-- LoginComponent&#45;&gt;AuthModule -->
<g id="edge8" class="edge">
<title>LoginComponent&#45;&gt;AuthModule</title>
<path fill="none" stroke="black" d="M1192.69,-122.01C1192.69,-122.01 1192.69,-151.85 1192.69,-151.85"/>
<polygon fill="black" stroke="black" points="1189.19,-151.85 1192.69,-161.85 1196.19,-151.85 1189.19,-151.85"/>
</g>
<!-- RegisterComponent -->
<g id="node10" class="node">
<title>RegisterComponent</title>
<polygon fill="#ffffb3" stroke="black" points="1158.98,-122 1031.02,-122 1031.02,-86 1158.98,-86 1158.98,-122"/>
<text text-anchor="middle" x="1095" y="-99.8" font-family="Times,serif" font-size="14.00">RegisterComponent</text>
</g>
<!-- RegisterComponent&#45;&gt;AuthModule -->
<g id="edge9" class="edge">
<title>RegisterComponent&#45;&gt;AuthModule</title>
<path fill="none" stroke="black" d="M1140.11,-122.01C1140.11,-122.01 1140.11,-151.85 1140.11,-151.85"/>
<polygon fill="black" stroke="black" points="1136.61,-151.85 1140.11,-161.85 1143.61,-151.85 1136.61,-151.85"/>
</g>
<!-- HideElementDirective -->
<g id="node11" class="node">
<title>HideElementDirective</title>
<polygon fill="#ffffb3" stroke="black" points="482.95,-266 341.05,-266 341.05,-230 482.95,-230 482.95,-266"/>
<text text-anchor="middle" x="412" y="-243.8" font-family="Times,serif" font-size="14.00">HideElementDirective</text>
</g>
<!-- HideElementDirective&#45;&gt;CoreModule -->
<g id="edge10" class="edge">
<title>HideElementDirective&#45;&gt;CoreModule</title>
<path fill="none" stroke="black" d="M412,-229.78C412,-209.63 412,-180 412,-180 412,-180 1006.73,-180 1006.73,-180"/>
<polygon fill="black" stroke="black" points="1006.73,-183.5 1016.73,-180 1006.73,-176.5 1006.73,-183.5"/>
</g>
<!-- ReadOnlyDirective -->
<g id="node12" class="node">
<title>ReadOnlyDirective</title>
<polygon fill="#ffffb3" stroke="black" points="323.35,-266 198.65,-266 198.65,-230 323.35,-230 323.35,-266"/>
<text text-anchor="middle" x="261" y="-243.8" font-family="Times,serif" font-size="14.00">ReadOnlyDirective</text>
</g>
<!-- ReadOnlyDirective&#45;&gt;CoreModule -->
<g id="edge11" class="edge">
<title>ReadOnlyDirective&#45;&gt;CoreModule</title>
<path fill="none" stroke="black" d="M261,-229.71C261,-207.79 261,-174 261,-174 261,-174 1006.47,-174 1006.47,-174"/>
<polygon fill="black" stroke="black" points="1006.47,-177.5 1016.47,-174 1006.47,-170.5 1006.47,-177.5"/>
</g>
<!-- TransformUsernamePipe -->
<g id="node13" class="node">
<title>TransformUsernamePipe</title>
<polygon fill="#ffffb3" stroke="black" points="180.22,-266 23.78,-266 23.78,-230 180.22,-230 180.22,-266"/>
<text text-anchor="middle" x="102" y="-243.8" font-family="Times,serif" font-size="14.00">TransformUsernamePipe</text>
</g>
<!-- TransformUsernamePipe&#45;&gt;CoreModule -->
<g id="edge12" class="edge">
<title>TransformUsernamePipe&#45;&gt;CoreModule</title>
<path fill="none" stroke="black" d="M102,-229.85C102,-206.24 102,-168 102,-168 102,-168 1006.66,-168 1006.66,-168"/>
<polygon fill="black" stroke="black" points="1006.66,-171.5 1016.66,-168 1006.66,-164.5 1006.66,-171.5"/>
</g>
<!-- HomeComponent -->
<g id="node17" class="node">
<title>HomeComponent</title>
<polygon fill="#ffffb3" stroke="black" points="1824.55,-122 1709.45,-122 1709.45,-86 1824.55,-86 1824.55,-122"/>
<text text-anchor="middle" x="1767" y="-99.8" font-family="Times,serif" font-size="14.00">HomeComponent</text>
</g>
<!-- HomeComponent&#45;&gt;HomeModule -->
<g id="edge16" class="edge">
<title>HomeComponent&#45;&gt;HomeModule</title>
<path fill="none" stroke="black" d="M1767,-122.01C1767,-144.49 1767,-180 1767,-180 1767,-180 1664.85,-180 1664.85,-180"/>
<polygon fill="black" stroke="black" points="1664.85,-176.5 1654.85,-180 1664.85,-183.5 1664.85,-176.5"/>
</g>
<!-- HomePageTripComponent -->
<g id="node18" class="node">
<title>HomePageTripComponent</title>
<polygon fill="#ffffb3" stroke="black" points="1691.36,-122 1524.64,-122 1524.64,-86 1691.36,-86 1691.36,-122"/>
<text text-anchor="middle" x="1608" y="-99.8" font-family="Times,serif" font-size="14.00">HomePageTripComponent</text>
</g>
<!-- HomePageTripComponent&#45;&gt;HomeModule -->
<g id="edge17" class="edge">
<title>HomePageTripComponent&#45;&gt;HomeModule</title>
<path fill="none" stroke="black" d="M1608,-122.01C1608,-122.01 1608,-151.85 1608,-151.85"/>
<polygon fill="black" stroke="black" points="1604.5,-151.85 1608,-161.85 1611.5,-151.85 1604.5,-151.85"/>
</g>
<!-- NavComponent -->
<g id="node19" class="node">
<title>NavComponent</title>
<polygon fill="#ffffb3" stroke="black" points="3395.15,-122 3290.85,-122 3290.85,-86 3395.15,-86 3395.15,-122"/>
<text text-anchor="middle" x="3343" y="-99.8" font-family="Times,serif" font-size="14.00">NavComponent</text>
</g>
<!-- NavComponent&#45;&gt;SharedModule -->
<g id="edge18" class="edge">
<title>NavComponent&#45;&gt;SharedModule</title>
<path fill="none" stroke="black" d="M3343,-122.03C3343,-147.51 3343,-191 3343,-191 3343,-191 3263.4,-191 3263.4,-191"/>
<polygon fill="black" stroke="black" points="3263.4,-187.5 3253.4,-191 3263.4,-194.5 3263.4,-187.5"/>
</g>
<!-- NotFoundComponent -->
<g id="node20" class="node">
<title>NotFoundComponent</title>
<polygon fill="#ffffb3" stroke="black" points="3273.11,-122 3134.89,-122 3134.89,-86 3273.11,-86 3273.11,-122"/>
<text text-anchor="middle" x="3204" y="-99.8" font-family="Times,serif" font-size="14.00">NotFoundComponent</text>
</g>
<!-- NotFoundComponent&#45;&gt;SharedModule -->
<g id="edge19" class="edge">
<title>NotFoundComponent&#45;&gt;SharedModule</title>
<path fill="none" stroke="black" d="M3204,-122.01C3204,-122.01 3204,-151.85 3204,-151.85"/>
<polygon fill="black" stroke="black" points="3200.5,-151.85 3204,-161.85 3207.5,-151.85 3200.5,-151.85"/>
</g>
<!-- TripComponent -->
<g id="node22" class="node">
<title>TripComponent</title>
<polygon fill="#ffffb3" stroke="black" points="4670.94,-122 4565.06,-122 4565.06,-86 4670.94,-86 4670.94,-122"/>
<text text-anchor="middle" x="4618" y="-99.8" font-family="Times,serif" font-size="14.00">TripComponent</text>
</g>
<!-- TripModule -->
<g id="node29" class="node">
<title>TripModule</title>
<polygon fill="#8dd3c7" stroke="black" points="4133.65,-198 4130.65,-202 4109.65,-202 4106.65,-198 4050.35,-198 4050.35,-162 4133.65,-162 4133.65,-198"/>
<text text-anchor="middle" x="4092" y="-175.8" font-family="Times,serif" font-size="14.00">TripModule</text>
</g>
<!-- TripComponent&#45;&gt;TripModule -->
<g id="edge21" class="edge">
<title>TripComponent&#45;&gt;TripModule</title>
<path fill="none" stroke="black" d="M4618,-122.03C4618,-146.98 4618,-189 4618,-189 4618,-189 4143.71,-189 4143.71,-189"/>
<polygon fill="black" stroke="black" points="4143.71,-185.5 4133.71,-189 4143.71,-192.5 4143.71,-185.5"/>
</g>
<!-- TripCreateComponent -->
<g id="node23" class="node">
<title>TripCreateComponent</title>
<polygon fill="#ffffb3" stroke="black" points="4546.97,-122 4405.03,-122 4405.03,-86 4546.97,-86 4546.97,-122"/>
<text text-anchor="middle" x="4476" y="-99.8" font-family="Times,serif" font-size="14.00">TripCreateComponent</text>
</g>
<!-- TripCreateComponent&#45;&gt;TripModule -->
<g id="edge22" class="edge">
<title>TripCreateComponent&#45;&gt;TripModule</title>
<path fill="none" stroke="black" d="M4476,-122.01C4476,-144.49 4476,-180 4476,-180 4476,-180 4143.83,-180 4143.83,-180"/>
<polygon fill="black" stroke="black" points="4143.83,-176.5 4133.83,-180 4143.83,-183.5 4143.83,-176.5"/>
</g>
<!-- TripDetailComponent -->
<g id="node24" class="node">
<title>TripDetailComponent</title>
<polygon fill="#ffffb3" stroke="black" points="4386.64,-122 4247.36,-122 4247.36,-86 4386.64,-86 4386.64,-122"/>
<text text-anchor="middle" x="4317" y="-99.8" font-family="Times,serif" font-size="14.00">TripDetailComponent</text>
</g>
<!-- TripDetailComponent&#45;&gt;TripModule -->
<g id="edge23" class="edge">
<title>TripDetailComponent&#45;&gt;TripModule</title>
<path fill="none" stroke="black" d="M4317,-122.31C4317,-142.15 4317,-171 4317,-171 4317,-171 4143.79,-171 4143.79,-171"/>
<polygon fill="black" stroke="black" points="4143.79,-167.5 4133.79,-171 4143.79,-174.5 4143.79,-167.5"/>
</g>
<!-- TripEditComponent -->
<g id="node25" class="node">
<title>TripEditComponent</title>
<polygon fill="#ffffb3" stroke="black" points="4229.27,-122 4100.73,-122 4100.73,-86 4229.27,-86 4229.27,-122"/>
<text text-anchor="middle" x="4165" y="-99.8" font-family="Times,serif" font-size="14.00">TripEditComponent</text>
</g>
<!-- TripEditComponent&#45;&gt;TripModule -->
<g id="edge24" class="edge">
<title>TripEditComponent&#45;&gt;TripModule</title>
<path fill="none" stroke="black" d="M4117.22,-122.01C4117.22,-122.01 4117.22,-151.85 4117.22,-151.85"/>
<polygon fill="black" stroke="black" points="4113.72,-151.85 4117.22,-161.85 4120.72,-151.85 4113.72,-151.85"/>
</g>
<!-- TripListComponent -->
<g id="node26" class="node">
<title>TripListComponent</title>
<polygon fill="#ffffb3" stroke="black" points="4082.71,-122 3955.29,-122 3955.29,-86 4082.71,-86 4082.71,-122"/>
<text text-anchor="middle" x="4019" y="-99.8" font-family="Times,serif" font-size="14.00">TripListComponent</text>
</g>
<!-- TripListComponent&#45;&gt;TripModule -->
<g id="edge25" class="edge">
<title>TripListComponent&#45;&gt;TripModule</title>
<path fill="none" stroke="black" d="M4066.39,-122.01C4066.39,-122.01 4066.39,-151.85 4066.39,-151.85"/>
<polygon fill="black" stroke="black" points="4062.89,-151.85 4066.39,-161.85 4069.89,-151.85 4062.89,-151.85"/>
</g>
<!-- TripMembersComponent -->
<g id="node27" class="node">
<title>TripMembersComponent</title>
<polygon fill="#ffffb3" stroke="black" points="3937.31,-122 3778.69,-122 3778.69,-86 3937.31,-86 3937.31,-122"/>
<text text-anchor="middle" x="3858" y="-99.8" font-family="Times,serif" font-size="14.00">TripMembersComponent</text>
</g>
<!-- TripMembersComponent&#45;&gt;TripModule -->
<g id="edge26" class="edge">
<title>TripMembersComponent&#45;&gt;TripModule</title>
<path fill="none" stroke="black" d="M3858,-122.03C3858,-141.58 3858,-170 3858,-170 3858,-170 4040.17,-170 4040.17,-170"/>
<polygon fill="black" stroke="black" points="4040.17,-173.5 4050.17,-170 4040.17,-166.5 4040.17,-173.5"/>
</g>
<!-- TripSearchFormComponent -->
<g id="node28" class="node">
<title>TripSearchFormComponent</title>
<polygon fill="#ffffb3" stroke="black" points="3760.86,-122 3587.14,-122 3587.14,-86 3760.86,-86 3760.86,-122"/>
<text text-anchor="middle" x="3674" y="-99.8" font-family="Times,serif" font-size="14.00">TripSearchFormComponent</text>
</g>
<!-- TripSearchFormComponent&#45;&gt;TripModule -->
<g id="edge27" class="edge">
<title>TripSearchFormComponent&#45;&gt;TripModule</title>
<path fill="none" stroke="black" d="M3674,-122.04C3674,-143.66 3674,-177 3674,-177 3674,-177 4040.01,-177 4040.01,-177"/>
<polygon fill="black" stroke="black" points="4040.01,-180.5 4050.01,-177 4040.01,-173.5 4040.01,-180.5"/>
</g>
<!-- TripRoutingModule -->
<g id="node30" class="node">
<title>TripRoutingModule</title>
<polygon fill="#8dd3c7" stroke="black" points="3563.27,-122 3560.27,-126 3539.27,-126 3536.27,-122 3434.73,-122 3434.73,-86 3563.27,-86 3563.27,-122"/>
<text text-anchor="middle" x="3499" y="-99.8" font-family="Times,serif" font-size="14.00">TripRoutingModule</text>
</g>
<!-- TripRoutingModule&#45;&gt;TripModule -->
<g id="edge28" class="edge">
<title>TripRoutingModule&#45;&gt;TripModule</title>
<path fill="none" stroke="black" d="M3499,-122.15C3499,-145.76 3499,-184 3499,-184 3499,-184 4040.3,-184 4040.3,-184"/>
<polygon fill="black" stroke="black" points="4040.3,-187.5 4050.3,-184 4040.3,-180.5 4040.3,-187.5"/>
</g>
<!-- UserMessageComponent -->
<g id="node31" class="node">
<title>UserMessageComponent</title>
<polygon fill="#ffffb3" stroke="black" points="2357.24,-198 2200.76,-198 2200.76,-162 2357.24,-162 2357.24,-198"/>
<text text-anchor="middle" x="2279" y="-175.8" font-family="Times,serif" font-size="14.00">UserMessageComponent</text>
</g>
<!-- UserMessageComponent&#45;&gt;UserModule -->
<g id="edge29" class="edge">
<title>UserMessageComponent&#45;&gt;UserModule</title>
<path fill="none" stroke="black" d="M2347.92,-198.22C2347.92,-198.22 2347.92,-219.73 2347.92,-219.73"/>
<polygon fill="black" stroke="black" points="2344.42,-219.73 2347.92,-229.73 2351.42,-219.73 2344.42,-219.73"/>
</g>
<!-- UserMessagesComponent -->
<g id="node32" class="node">
<title>UserMessagesComponent</title>
<polygon fill="#ffffb3" stroke="black" points="2183.18,-198 2020.82,-198 2020.82,-162 2183.18,-162 2183.18,-198"/>
<text text-anchor="middle" x="2102" y="-175.8" font-family="Times,serif" font-size="14.00">UserMessagesComponent</text>
</g>
<!-- UserMessagesComponent&#45;&gt;UserModule -->
<g id="edge30" class="edge">
<title>UserMessagesComponent&#45;&gt;UserModule</title>
<path fill="none" stroke="black" d="M2102,-198.02C2102,-215.37 2102,-239 2102,-239 2102,-239 2318.92,-239 2318.92,-239"/>
<polygon fill="black" stroke="black" points="2318.92,-242.5 2328.92,-239 2318.92,-235.5 2318.92,-242.5"/>
</g>
<!-- UserNotificationFormComponent -->
<g id="node33" class="node">
<title>UserNotificationFormComponent</title>
<polygon fill="#ffffb3" stroke="black" points="3094.74,-198 2889.26,-198 2889.26,-162 3094.74,-162 3094.74,-198"/>
<text text-anchor="middle" x="2992" y="-175.8" font-family="Times,serif" font-size="14.00">UserNotificationFormComponent</text>
</g>
<!-- UserNotificationFormComponent&#45;&gt;UserModule -->
<g id="edge31" class="edge">
<title>UserNotificationFormComponent&#45;&gt;UserModule</title>
<path fill="none" stroke="black" d="M2992,-198.25C2992,-221.02 2992,-257 2992,-257 2992,-257 2425.1,-257 2425.1,-257"/>
<polygon fill="black" stroke="black" points="2425.1,-253.5 2415.1,-257 2425.1,-260.5 2425.1,-253.5"/>
</g>
<!-- UserProfileComponent -->
<g id="node34" class="node">
<title>UserProfileComponent</title>
<polygon fill="#ffffb3" stroke="black" points="2870.86,-198 2725.14,-198 2725.14,-162 2870.86,-162 2870.86,-198"/>
<text text-anchor="middle" x="2798" y="-175.8" font-family="Times,serif" font-size="14.00">UserProfileComponent</text>
</g>
<!-- UserProfileComponent&#45;&gt;UserModule -->
<g id="edge32" class="edge">
<title>UserProfileComponent&#45;&gt;UserModule</title>
<path fill="none" stroke="black" d="M2798,-198.22C2798,-218.37 2798,-248 2798,-248 2798,-248 2425.19,-248 2425.19,-248"/>
<polygon fill="black" stroke="black" points="2425.19,-244.5 2415.19,-248 2425.19,-251.5 2425.19,-244.5"/>
</g>
<!-- UserTripComponent -->
<g id="node35" class="node">
<title>UserTripComponent</title>
<polygon fill="#ffffb3" stroke="black" points="2706.86,-198 2575.14,-198 2575.14,-162 2706.86,-162 2706.86,-198"/>
<text text-anchor="middle" x="2641" y="-175.8" font-family="Times,serif" font-size="14.00">UserTripComponent</text>
</g>
<!-- UserTripComponent&#45;&gt;UserModule -->
<g id="edge33" class="edge">
<title>UserTripComponent&#45;&gt;UserModule</title>
<path fill="none" stroke="black" d="M2641,-198.02C2641,-215.37 2641,-239 2641,-239 2641,-239 2425.22,-239 2425.22,-239"/>
<polygon fill="black" stroke="black" points="2425.22,-235.5 2415.22,-239 2425.22,-242.5 2425.22,-235.5"/>
</g>
<!-- UserUploadPhotoComponent -->
<g id="node36" class="node">
<title>UserUploadPhotoComponent</title>
<polygon fill="#ffffb3" stroke="black" points="2556.64,-198 2375.36,-198 2375.36,-162 2556.64,-162 2556.64,-198"/>
<text text-anchor="middle" x="2466" y="-175.8" font-family="Times,serif" font-size="14.00">UserUploadPhotoComponent</text>
</g>
<!-- UserUploadPhotoComponent&#45;&gt;UserModule -->
<g id="edge34" class="edge">
<title>UserUploadPhotoComponent&#45;&gt;UserModule</title>
<path fill="none" stroke="black" d="M2395.08,-198.22C2395.08,-198.22 2395.08,-219.73 2395.08,-219.73"/>
<polygon fill="black" stroke="black" points="2391.58,-219.73 2395.08,-229.73 2398.58,-219.73 2391.58,-219.73"/>
</g>
<!-- UserRoutingModule -->
<g id="node38" class="node">
<title>UserRoutingModule</title>
<polygon fill="#8dd3c7" stroke="black" points="1996.59,-198 1993.59,-202 1972.59,-202 1969.59,-198 1865.41,-198 1865.41,-162 1996.59,-162 1996.59,-198"/>
<text text-anchor="middle" x="1931" y="-175.8" font-family="Times,serif" font-size="14.00">UserRoutingModule</text>
</g>
<!-- UserRoutingModule&#45;&gt;UserModule -->
<g id="edge36" class="edge">
<title>UserRoutingModule&#45;&gt;UserModule</title>
<path fill="none" stroke="black" d="M1931,-198.22C1931,-218.37 1931,-248 1931,-248 1931,-248 2318.91,-248 2318.91,-248"/>
<polygon fill="black" stroke="black" points="2318.91,-251.5 2328.91,-248 2318.91,-244.5 2318.91,-251.5"/>
</g>
</g>
</svg>
