<?xml version="1.0" encoding="UTF-8" standalone="no"?>
<!DOCTYPE svg PUBLIC "-//W3C//DTD SVG 1.1//EN"
 "http://www.w3.org/Graphics/SVG/1.1/DTD/svg11.dtd">
<!-- Generated by graphviz version 2.44.1 (20200629.0846)
 -->
<!-- Title: dependencies Pages: 1 -->
<svg width="1292pt" height="211pt"
 viewBox="0.00 0.00 1292.00 211.00" xmlns="http://www.w3.org/2000/svg" xmlns:xlink="http://www.w3.org/1999/xlink">
<g id="graph0" class="graph" transform="scale(1 1) rotate(0) translate(4 207)">
<title>dependencies</title>
<polygon fill="white" stroke="transparent" points="-4,4 -4,-207 1288,-207 1288,4 -4,4"/>
<text text-anchor="start" x="621.01" y="-42.4" font-family="sans-serif" font-weight="bold" font-size="14.00">Legend</text>
<polygon fill="#ffffb3" stroke="transparent" points="408,-10 408,-30 428,-30 428,-10 408,-10"/>
<text text-anchor="start" x="431.63" y="-15.4" font-family="sans-serif" font-size="14.00"> &#160;Declarations</text>
<polygon fill="#8dd3c7" stroke="transparent" points="521,-10 521,-30 541,-30 541,-10 521,-10"/>
<text text-anchor="start" x="544.73" y="-15.4" font-family="sans-serif" font-size="14.00"> &#160;Module</text>
<polygon fill="#80b1d3" stroke="transparent" points="607,-10 607,-30 627,-30 627,-10 607,-10"/>
<text text-anchor="start" x="630.78" y="-15.4" font-family="sans-serif" font-size="14.00"> &#160;Bootstrap</text>
<polygon fill="#fdb462" stroke="transparent" points="704,-10 704,-30 724,-30 724,-10 704,-10"/>
<text text-anchor="start" x="727.67" y="-15.4" font-family="sans-serif" font-size="14.00"> &#160;Providers</text>
<polygon fill="#fb8072" stroke="transparent" points="800,-10 800,-30 820,-30 820,-10 800,-10"/>
<text text-anchor="start" x="823.73" y="-15.4" font-family="sans-serif" font-size="14.00"> &#160;Exports</text>
<g id="clust1" class="cluster">
<title>cluster_TripModule</title>
<polygon fill="none" stroke="black" stroke-dasharray="1,5" points="8,-70 8,-195 1276,-195 1276,-70 8,-70"/>
</g>
<g id="clust2" class="cluster">
<title>cluster_TripModule_declarations</title>
<polygon fill="none" stroke="black" points="168,-78 168,-130 1268,-130 1268,-78 168,-78"/>
</g>
<g id="clust10" class="cluster">
<title>cluster_TripModule_imports</title>
<polygon fill="none" stroke="black" points="16,-78 16,-130 160,-130 160,-78 16,-78"/>
</g>
<!-- TripComponent -->
<g id="node1" class="node">
<title>TripComponent</title>
<polygon fill="#ffffb3" stroke="black" points="1259.94,-122 1154.06,-122 1154.06,-86 1259.94,-86 1259.94,-122"/>
<text text-anchor="middle" x="1207" y="-99.8" font-family="Times,serif" font-size="14.00">TripComponent</text>
</g>
<!-- TripModule -->
<g id="node8" class="node">
<title>TripModule</title>
<polygon fill="#8dd3c7" stroke="black" points="722.65,-187 719.65,-191 698.65,-191 695.65,-187 639.35,-187 639.35,-151 722.65,-151 722.65,-187"/>
<text text-anchor="middle" x="681" y="-164.8" font-family="Times,serif" font-size="14.00">TripModule</text>
</g>
<!-- TripComponent&#45;&gt;TripModule -->
<g id="edge1" class="edge">
<title>TripComponent&#45;&gt;TripModule</title>
<path fill="none" stroke="black" d="M1207,-122.29C1207,-144.21 1207,-178 1207,-178 1207,-178 732.71,-178 732.71,-178"/>
<polygon fill="black" stroke="black" points="732.71,-174.5 722.71,-178 732.71,-181.5 732.71,-174.5"/>
</g>
<!-- TripCreateComponent -->
<g id="node2" class="node">
<title>TripCreateComponent</title>
<polygon fill="#ffffb3" stroke="black" points="1135.97,-122 994.03,-122 994.03,-86 1135.97,-86 1135.97,-122"/>
<text text-anchor="middle" x="1065" y="-99.8" font-family="Times,serif" font-size="14.00">TripCreateComponent</text>
</g>
<!-- TripCreateComponent&#45;&gt;TripModule -->
<g id="edge2" class="edge">
<title>TripCreateComponent&#45;&gt;TripModule</title>
<path fill="none" stroke="black" d="M1065,-122.11C1065,-141.34 1065,-169 1065,-169 1065,-169 732.83,-169 732.83,-169"/>
<polygon fill="black" stroke="black" points="732.83,-165.5 722.83,-169 732.83,-172.5 732.83,-165.5"/>
</g>
<!-- TripDetailComponent -->
<g id="node3" class="node">
<title>TripDetailComponent</title>
<polygon fill="#ffffb3" stroke="black" points="975.64,-122 836.36,-122 836.36,-86 975.64,-86 975.64,-122"/>
<text text-anchor="middle" x="906" y="-99.8" font-family="Times,serif" font-size="14.00">TripDetailComponent</text>
</g>
<!-- TripDetailComponent&#45;&gt;TripModule -->
<g id="edge3" class="edge">
<title>TripDetailComponent&#45;&gt;TripModule</title>
<path fill="none" stroke="black" d="M906,-122.03C906,-138.4 906,-160 906,-160 906,-160 732.79,-160 732.79,-160"/>
<polygon fill="black" stroke="black" points="732.79,-156.5 722.79,-160 732.79,-163.5 732.79,-156.5"/>
</g>
<!-- TripEditComponent -->
<g id="node4" class="node">
<title>TripEditComponent</title>
<polygon fill="#ffffb3" stroke="black" points="818.27,-122 689.73,-122 689.73,-86 818.27,-86 818.27,-122"/>
<text text-anchor="middle" x="754" y="-99.8" font-family="Times,serif" font-size="14.00">TripEditComponent</text>
</g>
<!-- TripEditComponent&#45;&gt;TripModule -->
<g id="edge4" class="edge">
<title>TripEditComponent&#45;&gt;TripModule</title>
<path fill="none" stroke="black" d="M706.22,-122.11C706.22,-122.11 706.22,-140.99 706.22,-140.99"/>
<polygon fill="black" stroke="black" points="702.72,-140.99 706.22,-150.99 709.72,-140.99 702.72,-140.99"/>
</g>
<!-- TripListComponent -->
<g id="node5" class="node">
<title>TripListComponent</title>
<polygon fill="#ffffb3" stroke="black" points="671.71,-122 544.29,-122 544.29,-86 671.71,-86 671.71,-122"/>
<text text-anchor="middle" x="608" y="-99.8" font-family="Times,serif" font-size="14.00">TripListComponent</text>
</g>
<!-- TripListComponent&#45;&gt;TripModule -->
<g id="edge5" class="edge">
<title>TripListComponent&#45;&gt;TripModule</title>
<path fill="none" stroke="black" d="M655.39,-122.11C655.39,-122.11 655.39,-140.99 655.39,-140.99"/>
<polygon fill="black" stroke="black" points="651.89,-140.99 655.39,-150.99 658.89,-140.99 651.89,-140.99"/>
</g>
<!-- TripMembersComponent -->
<g id="node6" class="node">
<title>TripMembersComponent</title>
<polygon fill="#ffffb3" stroke="black" points="526.31,-122 367.69,-122 367.69,-86 526.31,-86 526.31,-122"/>
<text text-anchor="middle" x="447" y="-99.8" font-family="Times,serif" font-size="14.00">TripMembersComponent</text>
</g>
<!-- TripMembersComponent&#45;&gt;TripModule -->
<g id="edge6" class="edge">
<title>TripMembersComponent&#45;&gt;TripModule</title>
<path fill="none" stroke="black" d="M447,-122.03C447,-138.4 447,-160 447,-160 447,-160 629.17,-160 629.17,-160"/>
<polygon fill="black" stroke="black" points="629.17,-163.5 639.17,-160 629.17,-156.5 629.17,-163.5"/>
</g>
<!-- TripSearchFormComponent -->
<g id="node7" class="node">
<title>TripSearchFormComponent</title>
<polygon fill="#ffffb3" stroke="black" points="349.86,-122 176.14,-122 176.14,-86 349.86,-86 349.86,-122"/>
<text text-anchor="middle" x="263" y="-99.8" font-family="Times,serif" font-size="14.00">TripSearchFormComponent</text>
</g>
<!-- TripSearchFormComponent&#45;&gt;TripModule -->
<g id="edge7" class="edge">
<title>TripSearchFormComponent&#45;&gt;TripModule</title>
<path fill="none" stroke="black" d="M263,-122.11C263,-141.34 263,-169 263,-169 263,-169 629.01,-169 629.01,-169"/>
<polygon fill="black" stroke="black" points="629.01,-172.5 639.01,-169 629.01,-165.5 629.01,-172.5"/>
</g>
<!-- TripRoutingModule -->
<g id="node9" class="node">
<title>TripRoutingModule</title>
<polygon fill="#8dd3c7" stroke="black" points="152.27,-122 149.27,-126 128.27,-126 125.27,-122 23.73,-122 23.73,-86 152.27,-86 152.27,-122"/>
<text text-anchor="middle" x="88" y="-99.8" font-family="Times,serif" font-size="14.00">TripRoutingModule</text>
</g>
<!-- TripRoutingModule&#45;&gt;TripModule -->
<g id="edge8" class="edge">
<title>TripRoutingModule&#45;&gt;TripModule</title>
<path fill="none" stroke="black" d="M88,-122.29C88,-144.21 88,-178 88,-178 88,-178 629.3,-178 629.3,-178"/>
<polygon fill="black" stroke="black" points="629.3,-181.5 639.3,-178 629.3,-174.5 629.3,-181.5"/>
</g>
</g>
</svg>
