<?xml version="1.0" encoding="UTF-8" standalone="no"?>
<!DOCTYPE svg PUBLIC "-//W3C//DTD SVG 1.1//EN"
 "http://www.w3.org/Graphics/SVG/1.1/DTD/svg11.dtd">
<!-- Generated by graphviz version 2.44.1 (20200629.0846)
 -->
<!-- Title: dependencies Pages: 1 -->
<svg width="526pt" height="284pt"
 viewBox="0.00 0.00 526.00 284.00" xmlns="http://www.w3.org/2000/svg" xmlns:xlink="http://www.w3.org/1999/xlink">
<g id="graph0" class="graph" transform="scale(1 1) rotate(0) translate(4 280)">
<title>dependencies</title>
<polygon fill="white" stroke="transparent" points="-4,4 -4,-280 522,-280 522,4 -4,4"/>
<text text-anchor="start" x="238.01" y="-42.4" font-family="sans-serif" font-weight="bold" font-size="14.00">Legend</text>
<polygon fill="#ffffb3" stroke="transparent" points="25,-10 25,-30 45,-30 45,-10 25,-10"/>
<text text-anchor="start" x="48.63" y="-15.4" font-family="sans-serif" font-size="14.00"> &#160;Declarations</text>
<polygon fill="#8dd3c7" stroke="transparent" points="138,-10 138,-30 158,-30 158,-10 138,-10"/>
<text text-anchor="start" x="161.73" y="-15.4" font-family="sans-serif" font-size="14.00"> &#160;Module</text>
<polygon fill="#80b1d3" stroke="transparent" points="224,-10 224,-30 244,-30 244,-10 224,-10"/>
<text text-anchor="start" x="247.78" y="-15.4" font-family="sans-serif" font-size="14.00"> &#160;Bootstrap</text>
<polygon fill="#fdb462" stroke="transparent" points="321,-10 321,-30 341,-30 341,-10 321,-10"/>
<text text-anchor="start" x="344.67" y="-15.4" font-family="sans-serif" font-size="14.00"> &#160;Providers</text>
<polygon fill="#fb8072" stroke="transparent" points="417,-10 417,-30 437,-30 437,-10 417,-10"/>
<text text-anchor="start" x="440.73" y="-15.4" font-family="sans-serif" font-size="14.00"> &#160;Exports</text>
<g id="clust1" class="cluster">
<title>cluster_CoreModule</title>
<polygon fill="none" stroke="black" stroke-dasharray="1,5" points="8,-70 8,-268 510,-268 510,-70 8,-70"/>
</g>
<g id="clust7" class="cluster">
<title>cluster_CoreModule_exports</title>
<polygon fill="none" stroke="black" points="16,-208 16,-260 502,-260 502,-208 16,-208"/>
</g>
<g id="clust2" class="cluster">
<title>cluster_CoreModule_declarations</title>
<polygon fill="none" stroke="black" points="21,-78 21,-130 496,-130 496,-78 21,-78"/>
</g>
<!-- HideElementDirective -->
<g id="node1" class="node">
<title>HideElementDirective</title>
<polygon fill="#ffffb3" stroke="black" points="487.95,-122 346.05,-122 346.05,-86 487.95,-86 487.95,-122"/>
<text text-anchor="middle" x="417" y="-99.8" font-family="Times,serif" font-size="14.00">HideElementDirective</text>
</g>
<!-- CoreModule -->
<g id="node4" class="node">
<title>CoreModule</title>
<polygon fill="#8dd3c7" stroke="black" points="309.26,-187 306.26,-191 285.26,-191 282.26,-187 222.74,-187 222.74,-151 309.26,-151 309.26,-187"/>
<text text-anchor="middle" x="266" y="-164.8" font-family="Times,serif" font-size="14.00">CoreModule</text>
</g>
<!-- HideElementDirective&#45;&gt;CoreModule -->
<g id="edge1" class="edge">
<title>HideElementDirective&#45;&gt;CoreModule</title>
<path fill="none" stroke="black" d="M441.41,-122.02C441.41,-139.37 441.41,-163 441.41,-163 441.41,-163 319.36,-163 319.36,-163"/>
<polygon fill="black" stroke="black" points="319.36,-159.5 309.36,-163 319.36,-166.5 319.36,-159.5"/>
</g>
<!-- ReadOnlyDirective -->
<g id="node2" class="node">
<title>ReadOnlyDirective</title>
<polygon fill="#ffffb3" stroke="black" points="328.35,-122 203.65,-122 203.65,-86 328.35,-86 328.35,-122"/>
<text text-anchor="middle" x="266" y="-99.8" font-family="Times,serif" font-size="14.00">ReadOnlyDirective</text>
</g>
<!-- ReadOnlyDirective&#45;&gt;CoreModule -->
<g id="edge2" class="edge">
<title>ReadOnlyDirective&#45;&gt;CoreModule</title>
<path fill="none" stroke="black" d="M266,-122.11C266,-122.11 266,-140.99 266,-140.99"/>
<polygon fill="black" stroke="black" points="262.5,-140.99 266,-150.99 269.5,-140.99 262.5,-140.99"/>
</g>
<!-- TransformUsernamePipe -->
<g id="node3" class="node">
<title>TransformUsernamePipe</title>
<polygon fill="#ffffb3" stroke="black" points="185.22,-122 28.78,-122 28.78,-86 185.22,-86 185.22,-122"/>
<text text-anchor="middle" x="107" y="-99.8" font-family="Times,serif" font-size="14.00">TransformUsernamePipe</text>
</g>
<!-- TransformUsernamePipe&#45;&gt;CoreModule -->
<g id="edge3" class="edge">
<title>TransformUsernamePipe&#45;&gt;CoreModule</title>
<path fill="none" stroke="black" d="M132.29,-122.02C132.29,-139.37 132.29,-163 132.29,-163 132.29,-163 212.59,-163 212.59,-163"/>
<polygon fill="black" stroke="black" points="212.59,-166.5 222.59,-163 212.59,-159.5 212.59,-166.5"/>
</g>
<!-- HideElementDirective  -->
<g id="node5" class="node">
<title>HideElementDirective </title>
<polygon fill="#fb8072" stroke="black" points="493.95,-252 348.05,-252 348.05,-216 493.95,-216 493.95,-252"/>
<text text-anchor="middle" x="421" y="-229.8" font-family="Times,serif" font-size="14.00">HideElementDirective </text>
</g>
<!-- CoreModule&#45;&gt;HideElementDirective  -->
<g id="edge4" class="edge">
<title>CoreModule&#45;&gt;HideElementDirective </title>
<path fill="none" stroke="black" stroke-dasharray="5,2" d="M309.62,-175C347,-175 394.84,-175 394.84,-175 394.84,-175 394.84,-205.98 394.84,-205.98"/>
<polygon fill="black" stroke="black" points="391.34,-205.98 394.84,-215.98 398.34,-205.98 391.34,-205.98"/>
</g>
<!-- ReadOnlyDirective  -->
<g id="node6" class="node">
<title>ReadOnlyDirective </title>
<polygon fill="#fb8072" stroke="black" points="330.35,-252 201.65,-252 201.65,-216 330.35,-216 330.35,-252"/>
<text text-anchor="middle" x="266" y="-229.8" font-family="Times,serif" font-size="14.00">ReadOnlyDirective </text>
</g>
<!-- CoreModule&#45;&gt;ReadOnlyDirective  -->
<g id="edge5" class="edge">
<title>CoreModule&#45;&gt;ReadOnlyDirective </title>
<path fill="none" stroke="black" stroke-dasharray="5,2" d="M266,-187.11C266,-187.11 266,-205.99 266,-205.99"/>
<polygon fill="black" stroke="black" points="262.5,-205.99 266,-215.99 269.5,-205.99 262.5,-205.99"/>
</g>
<!-- TransformUsernamePipe  -->
<g id="node7" class="node">
<title>TransformUsernamePipe </title>
<polygon fill="#fb8072" stroke="black" points="184.22,-252 23.78,-252 23.78,-216 184.22,-216 184.22,-252"/>
<text text-anchor="middle" x="104" y="-229.8" font-family="Times,serif" font-size="14.00">TransformUsernamePipe </text>
</g>
<!-- CoreModule&#45;&gt;TransformUsernamePipe  -->
<g id="edge6" class="edge">
<title>CoreModule&#45;&gt;TransformUsernamePipe </title>
<path fill="none" stroke="black" stroke-dasharray="5,2" d="M222.5,-175C167.66,-175 80.46,-175 80.46,-175 80.46,-175 80.46,-205.98 80.46,-205.98"/>
<polygon fill="black" stroke="black" points="76.96,-205.98 80.46,-215.98 83.96,-205.98 76.96,-205.98"/>
</g>
</g>
</svg>
